<?xml version="1.0" encoding="utf-8"?>
<!-- Generator: Adobe Illustrator 24.0.0, SVG Export Plug-In . SVG Version: 6.00 Build 0)  -->
<svg version="1.1" id="Layer_1" xmlns="http://www.w3.org/2000/svg" xmlns:xlink="http://www.w3.org/1999/xlink" x="0px" y="0px"
	 viewBox="0 0 1435.3 1435.3" style="enable-background:new 0 0 1435.3 1435.3;" xml:space="preserve">
<style type="text/css">
	.st0{fill:#50419B;}
	.st1{fill:#0080C8;}
	.st2{fill:#01B2F1;}
	.st3{fill:#00AFAB;}
	.st4{fill:#00AA5B;}
	.st5{fill:#98D147;}
	.st6{fill:#FFF402;}
	.st7{fill:#FFC828;}
	.st8{fill:#FF9230;}
	.st9{fill:#FE572D;}
	.st10{fill:#FF4E9B;}
	.st11{fill:#BF479A;}
	.st12{fill:#FFFFFF;}
	.st13{fill:#FE71AD;}
	.st14{fill:#3656A5;}
	.st15{fill:#5DBF6A;}
	.st16{fill:#FBA6CE;}
	.st17{fill:#FFFF1C;}
	.st18{fill:#DF2717;}
</style>
<g>
	<g>
		<g>
			<path class="st0" d="M702,794.4L345.4,336.6c-61.7-78.6-52.2-164.7,8.8-215.2c61.7-50.9,146.5-41.1,201.1,45.4
				c7.5,11.9,14.1,25.1,19.2,37.5L792.7,742c11,27.3-1.5,58-27.6,69.1C742.7,820.7,716.9,813.3,702,794.4L702,794.4z"/>
			<path d="M744.7,824.1c-18.8,0-37.2-8.6-49.5-24.3v0L338.5,342c-31-39.4-46-82.4-43.5-124.1c1.2-20,6.5-39.1,15.6-56.7
				c9.1-17.6,21.9-33.3,38-46.6c31.7-26.1,69.5-37.3,106.5-31.4c20.3,3.3,39.8,11.5,57.8,24.4c18.7,13.5,35.5,31.8,49.8,54.4
				c7.5,11.8,14.3,25.3,19.9,38.8l218.1,537.7c6.2,15.3,6.2,32.1,0.1,47.2c-6.1,15.1-17.6,27-32.4,33.3
				C760.8,822.5,752.7,824.1,744.7,824.1L744.7,824.1z M708.9,789c12.7,16.2,34.4,22,52.7,14.1c21.7-9.3,32-35.2,22.9-57.8
				L566.4,207.6c-5.1-12.6-11.5-25.1-18.4-36.1c-25.6-40.5-58.6-65-95.6-71c-32-5.1-64.8,4.7-92.6,27.6c-60.6,50-63.6,131.6-7.5,203
				L708.9,789L708.9,789L708.9,789z"/>
		</g>
		<g>
			<path class="st1" d="M742.5,791.9L204.8,573.8C112,536.5,77.1,457.3,104.8,383c27.9-75,106.3-108.8,196.9-61.2
				c12.5,6.6,24.8,14.7,35.3,22.9l457.8,356.6c23.2,18.2,27.7,50.9,10.7,73.7C790.9,794.4,764.8,800.9,742.5,791.9L742.5,791.9z"/>
			<path d="M763,804.7c-8,0-16-1.5-23.8-4.6h0L201.5,581.9c-46.5-18.7-81-48.3-99.7-85.7c-8.9-17.9-13.9-37.1-14.8-56.9
				c-0.9-19.8,2.4-39.8,9.7-59.3c14.4-38.5,41.5-67,76.5-80.4c19.2-7.3,40.2-9.9,62.3-7.8c23,2.3,46.6,9.8,70.3,22.3
				c12.4,6.5,25.1,14.7,36.6,23.7l457.8,356.6c13,10.2,21.4,24.7,23.7,40.8c2.3,16.1-1.7,32.1-11.4,45
				C800.7,796,782.2,804.7,763,804.7L763,804.7z M745.7,783.8c19.1,7.7,40.8,1.9,52.8-14.1c14.2-18.9,10.1-46.5-9.1-61.6
				L331.7,351.6c-10.7-8.3-22.5-16-34-22c-42.4-22.3-83.3-27-118.3-13.6c-30.2,11.5-53.8,36.5-66.4,70.2
				c-27.4,73.6,10.7,145.8,95,179.6L745.7,783.8z"/>
		</g>
		<g>
			<path class="st2" d="M776.3,769.6l-574.7,80c-99,14.1-168.8-37.1-181.9-115.2C6.3,655.4,57.3,586.9,159.5,582.8
				c14.1-0.6,28.8,0.3,42,2.1l574.7,80c29.2,4.2,49.5,30.3,46.1,58.5C819.5,747.5,800.1,766.2,776.3,769.6L776.3,769.6z"/>
			<path d="M169.4,860.6c-36.3,0-68.9-9.1-95.8-26.8c-16.7-11.1-30.6-25.1-41.3-41.9c-10.7-16.7-17.9-35.6-21.3-56.2
				c-6.8-40.5,2.4-78.8,26.1-107.9c13-16,29.8-28.7,50.1-37.8c21-9.5,45.3-14.8,72-15.9c14-0.6,29.1,0.2,43.6,2.2l574.7,80
				c16.3,2.3,30.9,10.7,40.9,23.5c10.1,12.8,14.6,28.7,12.6,44.7c-3.3,27.7-25.3,49.8-53.5,53.8h0l-574.7,80
				C191.4,859.8,180.2,860.6,169.4,860.6L169.4,860.6z M168.2,591.4c-2.8,0-5.6,0-8.3,0.2c-47.8,1.9-85.6,18.2-109.3,47.3
				c-20.4,25.1-28.4,58.5-22.4,94c13,77.5,82.2,120.9,172.1,108l574.8-80c20.4-2.9,36.2-18.8,38.6-38.6
				c2.8-23.5-14.5-45.3-38.6-48.8l-574.7-80C189.7,592.1,178.7,591.4,168.2,591.4L168.2,591.4z"/>
		</g>
		<g>
			<path class="st3" d="M794.4,733.3l-457.8,356.6c-78.6,61.7-164.7,52.2-215.2-8.8c-50.9-61.7-41.1-146.5,45.4-201.1
				c11.9-7.5,25.1-14.1,37.5-19.2l537.7-218.1c27.3-11,58,1.5,69.1,27.6C820.7,692.6,813.3,718.4,794.4,733.3L794.4,733.3z"/>
			<path d="M227,1140.5c-3,0-6.1-0.1-9.1-0.3c-20-1.2-39.1-6.5-56.7-15.6c-17.6-9.1-33.3-21.9-46.6-38
				c-26.1-31.7-37.3-69.5-31.4-106.5c3.3-20.3,11.5-39.8,24.4-57.8c13.5-18.7,31.8-35.5,54.4-49.8c11.8-7.5,25.3-14.3,38.8-19.9
				l537.7-218.1c15.3-6.2,32.1-6.2,47.2-0.1c15.1,6.1,27,17.6,33.3,32.4c11,25.6,3,55.8-19.4,73.4h0L342,1096.8
				C305.4,1125.5,265.8,1140.5,227,1140.5L227,1140.5z M762.4,647.5c-5.7,0-11.5,1.1-17.1,3.3L207.6,868.9
				c-12.6,5.1-25.1,11.5-36.1,18.4c-40.5,25.6-65,58.6-71,95.6c-5.1,32,4.7,64.8,27.6,92.6c50,60.6,131.6,63.6,203,7.5L789,726.4
				c16.2-12.7,22-34.4,14.1-52.7C796.2,657.3,779.7,647.5,762.4,647.5L762.4,647.5z"/>
		</g>
		<g>
			<path class="st4" d="M791.9,692.8l-218.1,537.7c-37.2,92.8-116.5,127.6-190.8,99.9c-75-27.9-108.8-106.3-61.2-196.9
				c6.6-12.5,14.7-24.8,22.9-35.3l356.6-457.8c18.2-23.2,50.9-27.7,73.7-10.7C794.4,644.4,800.9,670.5,791.9,692.8L791.9,692.8z"/>
			<path d="M432.9,1348.5c-17.7,0-35.5-3.3-52.9-9.8c-38.5-14.4-67-41.5-80.4-76.5c-7.3-19.2-10-40.2-7.8-62.3
				c2.3-23,9.8-46.6,22.3-70.3c6.5-12.4,14.7-25.1,23.7-36.6l356.6-457.8c10.2-13,24.7-21.4,40.8-23.7c16.1-2.3,32.1,1.7,45,11.4
				c22.3,16.7,30.5,46.8,19.8,73.3v0l-218.1,537.7c-18.7,46.5-48.3,81-85.7,99.7c-17.9,8.9-37.1,13.9-56.9,14.8
				C437.2,1348.4,435.1,1348.5,432.9,1348.5z M744.1,628.4c-13.4,0-26.9,6.1-35.9,17.5l-356.6,457.7c-8.3,10.7-16,22.5-22,34
				c-22.3,42.4-27,83.3-13.6,118.3c11.5,30.2,36.5,53.8,70.2,66.4c73.6,27.4,145.8-10.7,179.6-95l218.1-537.7
				c7.7-19.1,1.9-40.8-14.1-52.8C762.1,631.1,753.1,628.4,744.1,628.4L744.1,628.4z"/>
		</g>
		<g>
			<path class="st5" d="M769.6,659l80,574.7c14.1,99-37.1,168.8-115.2,181.9c-78.9,13.3-147.4-37.7-151.5-139.9
				c-0.6-14.1,0.3-28.8,2.1-42l80-574.7c4.2-29.2,30.3-49.5,58.5-46.1C747.5,615.8,766.2,635.2,769.6,659L769.6,659z"/>
			<path d="M710,1426.5c-30.8,0-59.4-9.7-82.2-28.3c-16-13-28.7-29.8-37.8-50.1c-9.5-21-14.8-45.3-15.9-72
				c-0.5-14,0.2-29.1,2.2-43.6l80-574.7c2.3-16.3,10.7-30.9,23.5-40.9c12.8-10.1,28.7-14.6,44.7-12.6c27.7,3.3,49.8,25.3,53.8,53.5
				v0l80,574.7c7.1,49.6-1.4,94.3-24.4,129.2c-11.1,16.7-25.1,30.6-41.9,41.3c-16.7,10.7-35.6,17.9-56.2,21.3
				C727.1,1425.7,718.5,1426.5,710,1426.5L710,1426.5z M717.3,621.3c-21.5,0-40.6,16.5-43.8,38.9l-80,574.7
				c-1.9,13.5-2.6,27.5-2.1,40.5c1.9,47.8,18.2,85.6,47.3,109.3c25.1,20.4,58.5,28.4,94,22.4c77.5-13,120.9-82.2,108-172.1
				l-80-574.8c-2.9-20.4-18.8-36.2-38.6-38.6C720.7,621.4,719,621.3,717.3,621.3L717.3,621.3z"/>
		</g>
		<g>
			<path class="st6" d="M733.3,640.9l356.6,457.8c61.7,78.6,52.2,164.7-8.8,215.2c-61.7,50.9-146.5,41.1-201.1-45.4
				c-7.5-11.9-14.1-25.1-19.2-37.5L642.7,693.2c-11-27.3,1.5-58,27.6-69.1C692.6,614.5,718.4,621.9,733.3,640.9L733.3,640.9z"/>
			<path d="M999.7,1353.5c-6.5,0-13-0.5-19.5-1.6c-20.3-3.3-39.8-11.5-57.8-24.4c-18.7-13.5-35.5-31.8-49.8-54.4
				c-7.5-11.8-14.3-25.3-19.9-38.8L634.6,696.5c-6.2-15.3-6.2-32.1-0.1-47.2c6.1-15.1,17.6-27,32.4-33.3c25.6-11,55.8-3,73.4,19.4
				l0,0l356.6,457.8c31,39.4,46,82.4,43.5,124.1c-1.2,20-6.5,39.1-15.6,56.7c-9.1,17.6-21.9,33.3-38,46.6
				C1060.5,1342.1,1030.2,1353.5,999.7,1353.5L999.7,1353.5z M690.6,628.7c-5.7,0-11.5,1.1-17,3.5c-21.7,9.3-32,35.2-22.9,57.8
				l218.1,537.7c5.1,12.6,11.5,25.1,18.4,36.1c25.6,40.5,58.6,65,95.6,71c32,5.1,64.8-4.7,92.6-27.6c60.6-50,63.6-131.6,7.5-203
				L726.4,646.3C717.5,634.9,704.2,628.7,690.6,628.7L690.6,628.7z"/>
		</g>
		<g>
			<path class="st7" d="M692.8,643.4l537.7,218.1c92.8,37.2,127.6,116.5,99.9,190.8c-27.9,75-106.3,108.8-196.9,61.2
				c-12.5-6.6-24.8-14.7-35.3-22.9L640.5,734c-23.2-18.2-27.7-50.9-10.7-73.7C644.4,640.9,670.5,634.4,692.8,643.4L692.8,643.4z"/>
			<path d="M1214.9,1144.2c-4.9,0-10-0.2-15-0.8c-23-2.3-46.6-9.8-70.3-22.3c-12.4-6.5-25.1-14.7-36.6-23.7L635.1,740.9
				c-13-10.2-21.4-24.7-23.7-40.8c-2.3-16.1,1.7-32.1,11.4-45c16.7-22.3,46.8-30.5,73.3-19.8h0l537.7,218.1
				c46.5,18.7,81,48.3,99.7,85.7c8.9,17.9,13.9,37.1,14.8,56.9c0.9,19.8-2.4,39.8-9.7,59.3c-14.4,38.5-41.5,67-76.5,80.4
				C1247.3,1141.4,1231.5,1144.2,1214.9,1144.2L1214.9,1144.2z M672.3,648.1c-13.8,0-27,6.2-35.5,17.5
				c-14.2,18.9-10.1,46.5,9.1,61.6l457.7,356.6c10.7,8.3,22.5,16,34,22c42.4,22.3,83.3,27,118.3,13.6c30.2-11.5,53.8-36.5,66.4-70.2
				c27.4-73.6-10.7-145.8-95-179.6L689.6,651.5C683.9,649.2,678.1,648.1,672.3,648.1L672.3,648.1z"/>
		</g>
		<g>
			<path class="st8" d="M659,665.7l574.7-80c99-14.1,168.8,37.1,181.9,115.2c13.3,78.9-37.7,147.4-139.9,151.5
				c-14.1,0.6-28.8-0.3-42-2.1l-574.7-80c-29.2-4.2-49.5-30.3-46.1-58.5C615.8,687.8,635.2,669.1,659,665.7L659,665.7z"/>
			<path d="M1267.1,861.4c-11.4,0-23.1-0.8-34.6-2.4l-574.7-80c-16.3-2.3-30.9-10.7-40.9-23.5c-10.1-12.8-14.6-28.7-12.6-44.7
				c3.3-27.7,25.3-49.8,53.5-53.8h0l574.7-80c49.6-7.1,94.3,1.4,129.2,24.4c16.7,11.1,30.6,25.1,41.3,41.9
				c10.7,16.7,17.9,35.6,21.3,56.2c6.8,40.5-2.4,78.8-26.1,107.9c-13,16-29.8,28.7-50.1,37.8c-21,9.5-45.3,14.8-72,15.9
				C1273.1,861.3,1270.2,861.4,1267.1,861.4L1267.1,861.4z M660.2,674.4c-20.4,2.9-36.2,18.8-38.6,38.6
				c-2.8,23.5,14.5,45.3,38.6,48.8l574.7,80c13.5,1.9,27.5,2.6,40.5,2.1c47.8-1.9,85.6-18.2,109.3-47.3c20.4-25.1,28.4-58.5,22.4-94
				c-13-77.5-82.2-120.9-172.1-108L660.2,674.4L660.2,674.4L660.2,674.4z"/>
		</g>
		<g>
			<path class="st9" d="M640.9,702l457.8-356.6c78.6-61.7,164.7-52.2,215.2,8.8c50.9,61.7,41.1,146.5-45.4,201.1
				c-11.9,7.5-25.1,14.1-37.5,19.2L693.3,792.6c-27.3,11-58-1.5-69.1-27.6C614.6,742.7,622,716.9,640.9,702L640.9,702z"/>
			<path d="M672.7,805.4c-7.9,0-15.8-1.5-23.3-4.5c-15.1-6.1-27-17.6-33.3-32.4c-11-25.6-3-55.8,19.4-73.4h0l457.8-356.6
				c39.4-31,82.3-46,124.1-43.5c20,1.2,39.1,6.5,56.7,15.6c17.6,9.1,33.3,21.9,46.6,38c26.1,31.7,37.3,69.5,31.4,106.5
				c-3.3,20.3-11.5,39.8-24.4,57.8c-13.5,18.7-31.8,35.5-54.4,49.8c-11.8,7.5-25.3,14.3-38.8,19.9L696.5,800.7
				C688.8,803.9,680.7,805.4,672.7,805.4L672.7,805.4z M646.3,708.9c-16.2,12.7-22,34.4-14.1,52.7c9.3,21.7,35.2,32,57.8,22.9
				l537.7-218.1c12.6-5.1,25.1-11.5,36.1-18.4c40.5-25.6,65-58.6,71-95.6c5.1-32-4.7-64.8-27.6-92.6c-50-60.6-131.6-63.6-203-7.5
				L646.3,708.9L646.3,708.9L646.3,708.9z"/>
		</g>
		<g>
			<path class="st10" d="M643.4,742.5l218.1-537.7C898.7,112,978,77.1,1052.3,104.8c75,27.9,108.8,106.3,61.2,196.9
				c-6.6,12.5-14.7,24.8-22.9,35.3L734,794.8c-18.2,23.2-50.9,27.7-73.7,10.7C640.9,790.9,634.4,764.8,643.4,742.5L643.4,742.5z"/>
			<path d="M691.3,824.5c-13.1,0-25.6-4.1-36.2-12c-22.3-16.7-30.5-46.8-19.8-73.3v0l218.1-537.7c18.7-46.5,48.3-81,85.7-99.7
				C957,92.9,976.2,87.9,996,87c19.8-0.9,39.8,2.4,59.3,9.7c38.5,14.4,67,41.5,80.4,76.5c7.3,19.2,10,40.2,7.8,62.3
				c-2.3,23-9.8,46.6-22.3,70.3c-6.5,12.4-14.7,25.1-23.7,36.6L740.9,800.2c-10.2,13-24.7,21.4-40.8,23.7
				C697.2,824.3,694.2,824.5,691.3,824.5L691.3,824.5z M651.5,745.7c-7.7,19.1-1.9,40.8,14.1,52.8c18.9,14.2,46.5,10.1,61.6-9.1
				l356.6-457.7c8.3-10.7,16-22.5,22-34c22.3-42.4,27-83.3,13.6-118.3c-11.5-30.2-36.5-53.8-70.2-66.4
				c-73.6-27.4-145.8,10.7-179.6,95L651.5,745.7L651.5,745.7z"/>
		</g>
		<g>
			<path class="st11" d="M665.7,776.3l-80-574.7c-14.1-99,37.1-168.8,115.2-181.9c78.9-13.3,147.4,37.7,151.5,139.9
				c0.6,14.1-0.3,28.8-2.1,42l-80,574.7c-4.2,29.2-30.3,49.5-58.5,46.1C687.8,819.5,669.1,800.1,665.7,776.3L665.7,776.3z"/>
			<path d="M718.1,831.5c-2.4,0-4.8-0.1-7.2-0.4c-27.7-3.3-49.8-25.3-53.8-53.5v0l-80-574.7c-7.1-49.6,1.4-94.3,24.4-129.2
				c11.1-16.7,25.1-30.6,41.9-41.3C660.1,21.6,679,14.5,699.6,11c40.5-6.8,78.8,2.4,107.9,26.1c16,13,28.7,29.8,37.8,50.1
				c9.5,21,14.8,45.3,15.9,72c0.5,14-0.2,29.1-2.2,43.6l-80,574.7c-2.3,16.3-10.7,30.9-23.5,40.9C744.7,827,731.6,831.5,718.1,831.5
				L718.1,831.5z M674.4,775.1c2.9,20.4,18.8,36.2,38.6,38.6c23.5,2.8,45.3-14.5,48.8-38.6l80-574.7c1.9-13.5,2.6-27.5,2.1-40.5
				c-1.9-47.8-18.2-85.6-47.3-109.3c-25.1-20.4-58.5-28.4-94-22.4c-77.5,13-120.9,82.2-108,172.1L674.4,775.1L674.4,775.1
				L674.4,775.1z"/>
		</g>
		<g>
			<path class="st12" d="M717.7,538.1c76.4,0,90.7-69,90.7-93.5c0-70.1,45.1-128.9,140.7-128.9c156.5,0,174.9,222.7,177.9,402
				c0,377.3-409.3,363.4-409.3,363.4S308.3,1095,308.3,717.6c3.1-179.4,21.5-402,177.9-402c95.6,0,140.7,58.8,140.7,128.9
				C627,469.1,641.2,538.1,717.7,538.1"/>
			<path d="M723.6,1089.9c-3.1,0-5.1,0-5.9-0.1c-4.5,0.1-51.3,1.1-112.8-11.5c-37.3-7.7-72.1-18.8-103.7-33.1
				c-39.6-17.9-74.1-40.9-102.4-68.3c-65.8-63.6-99.1-150.8-99.1-259.3c0,0,0-0.1,0-0.1c0.6-35.1,2-87.7,7.1-139.2
				c5.2-52.2,13.3-95.2,24.7-131.5c13.6-43.1,32.2-76.7,55.3-99.7c26.7-26.6,60.2-40.1,99.6-40.1c47.2,0,86,14.1,112.4,40.8
				c12.2,12.4,21.6,27.2,27.9,44.1c6,16.2,9.1,33.9,9.1,52.7c0,12.7,4,33.8,15.3,51.2c14.4,22.3,36.8,33.6,66.6,33.6
				c29.8,0,52.3-11.3,66.6-33.6c11.3-17.5,15.3-38.5,15.3-51.2c0-18.8,3.1-36.5,9.1-52.7c6.3-16.9,15.7-31.7,27.9-44.1
				C863,321,901.8,306.9,949,306.9c39.3,0,72.8,13.5,99.6,40.1c23.1,23,41.7,56.6,55.3,99.7c25.5,81.2,30.4,187.3,31.8,270.7
				c0,0,0,0.1,0,0.1c0,108.5-33.4,195.7-99.1,259.3c-28.3,27.4-62.8,50.4-102.4,68.3c-31.6,14.3-66.4,25.4-103.7,33.1
				C779.5,1088.8,738.6,1089.9,723.6,1089.9L723.6,1089.9z M717.7,1072.4c0.1,0,0.2,0,0.3,0c0.5,0,48,1.4,109.5-11.3
				c56.3-11.6,136.2-37.9,197.1-96.8c62.2-60.1,93.7-143.1,93.7-246.6c-1.4-82.2-6.2-186.7-31-265.7
				c-27-85.9-72.2-127.6-138.2-127.6c-97.3,0-132,62.1-132,120.1c0,15.8-4.8,40.1-18.1,60.7c-12.2,19-36.3,41.6-81.3,41.6
				s-69.1-22.6-81.3-41.6c-13.3-20.6-18.1-44.9-18.1-60.7c0-58.1-34.7-120.1-132-120.1c-66,0-111.2,41.7-138.2,127.6
				c-24.8,79-29.6,183.5-31,265.7c0,103.5,31.5,186.4,93.7,246.6c60.9,58.9,140.8,85.1,197.1,96.8c61.4,12.7,109,11.3,109.5,11.3
				C717.4,1072.4,717.5,1072.4,717.7,1072.4L717.7,1072.4z"/>
		</g>
		<g>
			<path class="st13" d="M717.7,717.6c-183.8,0-197.6,28.3-197.6,28.3s13.5,85.5,84.2,146.1c65.2,55.8,161.6,55.8,226.8,0
				c70.7-60.6,84.2-146.1,84.2-146.1S901.5,717.6,717.7,717.6L717.7,717.6z"/>
			<path class="st14" d="M717.7,942.6c-43.7,0-86-15.6-119.1-44c-37.8-32.4-59.5-71.7-71-99c-12.5-29.6-16-51.4-16.2-52.3l-0.4-2.7
				l1.2-2.5c3.8-7.8,29.8-33.2,205.5-33.2s201.7,25.4,205.5,33.2l1.2,2.5l-0.4,2.7c-0.1,0.9-3.7,22.8-16.2,52.3
				c-11.5,27.3-33.2,66.6-71,99C803.6,927,761.3,942.6,717.7,942.6L717.7,942.6z M529.6,749c1.6,7.6,5.8,24.1,14.3,44.3
				c10.8,25.4,31,62,66,92c61.4,52.6,154,52.6,215.4,0c35.1-30,55.3-66.6,66-92c8.6-20.2,12.7-36.7,14.3-44.3
				c-3.6-2.3-12.2-6.6-31-10.9c-35-7.8-87.8-11.8-157.1-11.8s-122.1,4-157.1,11.8C541.8,742.4,533.1,746.7,529.6,749L529.6,749z
				 M908,750.8L908,750.8z M527.3,750.8L527.3,750.8L527.3,750.8z"/>
		</g>
		<g>
			
				<ellipse transform="matrix(0.9748 -0.2229 0.2229 0.9748 -118.6225 201.4984)" class="st15" cx="833.3" cy="626.2" rx="30.5" ry="46.4"/>
			
				<ellipse transform="matrix(0.9748 -0.2229 0.2229 0.9748 -114.3499 199.5702)" class="st16" cx="826.9" cy="606.3" rx="11.6" ry="17.7"/>
			
				<ellipse transform="matrix(0.1148 -0.9934 0.9934 0.1148 106.0472 1421.0115)" class="st17" cx="850.3" cy="651" rx="10.8" ry="7.1"/>
			
				<ellipse transform="matrix(0.2229 -0.9748 0.9748 0.2229 -142.558 1073.3656)" class="st18" cx="602" cy="626.1" rx="46.4" ry="30.5"/>
			
				<ellipse transform="matrix(0.2229 -0.9748 0.9748 0.2229 -118.2017 1064.1664)" class="st16" cx="608.4" cy="606.2" rx="17.7" ry="11.6"/>
			
				<ellipse transform="matrix(0.9934 -0.1148 0.1148 0.9934 -70.8535 71.428)" class="st17" cx="584.9" cy="651.1" rx="7.1" ry="10.8"/>
		</g>
	</g>
</g>
</svg>
