<svg id="Layer_1" data-name="Layer 1" xmlns="http://www.w3.org/2000/svg" viewBox="0 0 225.85 160.5"><defs><style>.cls-1{fill:#333;}</style></defs><title>Artboard 3</title><path class="cls-1" d="M149.12,130.22H114.84v11.83h24.72A52.84,52.84,0,0,0,149.12,130.22Z"/><path class="cls-1" d="M145,142.05h31.37a101.56,101.56,0,0,0,18.07-11.83H153.5A57.09,57.09,0,0,1,145,142.05Z"/><path class="cls-1" d="M132.4,152a52.54,52.54,0,0,1-10,4.44,138.8,138.8,0,0,0,45.9-10.57H141A53.51,53.51,0,0,1,132.4,152Z"/><path class="cls-1" d="M176.27,142.09l-7.93,3.74C171.06,144.67,173.7,143.43,176.27,142.09Z"/><path class="cls-1" d="M114.84,154.48a50.64,50.64,0,0,0,15.66-5.78c1.55-.9,3-1.85,4.38-2.83h-20Z"/><path class="cls-1" d="M111,154.48v-8.61H91c1.38,1,2.82,1.93,4.39,2.83A50.64,50.64,0,0,0,111,154.48Z"/><path class="cls-1" d="M111,130.22H76.74a52.91,52.91,0,0,0,9.57,11.83H111Z"/><path class="cls-1" d="M112.93,3.76C53.48,3.76,5.29,38,5.29,80.25c0,17.35,8.12,33.34,21.82,46.16,1.39,1.31,2.83,2.57,4.33,3.81a102.48,102.48,0,0,0,18.07,11.83c2.6,1.37,5.3,2.63,8.08,3.82a138.74,138.74,0,0,0,45.9,10.58c3.11.2,6.26.29,9.44.29s6.32-.09,9.43-.29H103.5a52.57,52.57,0,0,1-10-4.45,53.61,53.61,0,0,1-8.61-6.13H57.59c-2.78-1.19-5.48-2.45-8.08-3.82H80.89a57.46,57.46,0,0,1-8.53-11.83H31.45l-4.34-3.81H198.75c13.69-12.83,21.81-28.82,21.81-46.16C220.56,38,172.38,3.76,112.93,3.76Zm-77.77,100L56.9,42.36H70.32l.25-.69.24.69h-.49L48.58,103.75Zm19.28,0L73.5,50l19,53.8Zm66.77-13.62a17.3,17.3,0,0,0,11.35-4.21l9.63,10.8a31.9,31.9,0,1,1,0-48.06l-9.64,10.81a17.43,17.43,0,1,0-11.35,30.66Zm62.46-34.31h-21V66.58h19.77V78.67H162.7V90.3h21v13.46H148.4V42.36h35.27Z"/></svg>