<svg id="Layer_1" data-name="Layer 1" xmlns="http://www.w3.org/2000/svg" viewBox="0 0 225.85 160.5"><defs><style>.cls-1{fill:none;stroke:#333;stroke-miterlimit:10;}.cls-2{fill:#333;}</style></defs><title>Artboard 3</title><path class="cls-1" d="M72.36,130.23H31.45a103.52,103.52,0,0,0,18.06,11.83H80.89A58.11,58.11,0,0,1,72.36,130.23Z"/><path class="cls-1" d="M93.47,152a53.72,53.72,0,0,1-8.6-6.14H57.6a138.74,138.74,0,0,0,45.9,10.58A52.81,52.81,0,0,1,93.47,152Z"/><path class="cls-1" d="M149.12,130.22H114.84v11.83h24.72A52.84,52.84,0,0,0,149.12,130.22Z"/><path class="cls-1" d="M145,142.05h31.37a101.56,101.56,0,0,0,18.07-11.83H153.5A57.09,57.09,0,0,1,145,142.05Z"/><path class="cls-1" d="M132.4,152a52.54,52.54,0,0,1-10,4.44,138.8,138.8,0,0,0,45.9-10.57H141A53.51,53.51,0,0,1,132.4,152Z"/><path class="cls-1" d="M176.27,142.09l-7.93,3.74C171.06,144.67,173.7,143.43,176.27,142.09Z"/><path class="cls-1" d="M114.84,154.48a50.64,50.64,0,0,0,15.66-5.78c1.55-.9,3-1.85,4.38-2.83h-20Z"/><path class="cls-1" d="M95.37,148.7A50.64,50.64,0,0,0,111,154.48v-8.61H91C92.36,146.85,93.8,147.8,95.37,148.7Z"/><path class="cls-1" d="M86.31,142.05H111V130.22H76.74A52.91,52.91,0,0,0,86.31,142.05Z"/><polygon class="cls-2" points="70.33 42.36 48.59 103.76 35.16 103.76 56.91 42.36 70.33 42.36"/><polygon class="cls-2" points="92.55 103.76 73.5 49.95 54.45 103.76 92.55 103.76"/><polygon class="cls-2" points="183.67 90.3 162.7 90.3 162.7 78.67 182.47 78.67 182.47 66.59 162.7 66.59 162.7 55.82 183.67 55.82 183.67 42.36 148.41 42.36 148.41 103.76 183.67 103.76 183.67 90.3"/><path class="cls-2" d="M121.22,104.6a31.7,31.7,0,0,0,21-7.88l-9.62-10.8a17.44,17.44,0,1,1,0-26.45l9.63-10.8a31.9,31.9,0,1,0-21,55.93Z"/><path class="cls-1" d="M112.93,3.76C53.48,3.76,5.29,38,5.29,80.25c0,17.35,8.12,33.34,21.82,46.16H198.75c13.69-12.83,21.81-28.82,21.81-46.16C220.56,38,172.38,3.76,112.93,3.76Zm8.29,86.38a17.33,17.33,0,0,0,11.35-4.22l9.62,10.8a31.9,31.9,0,1,1,0-48l-9.63,10.8a17.44,17.44,0,1,0-11.35,30.67ZM92.55,103.76H54.45L73.5,50Zm-44,0H35.16l21.75-61.4H70.33ZM183.67,55.82h-21V66.59h19.77V78.67H162.7V90.3h21v13.46H148.41V42.36h35.26Z"/></svg>