<svg xmlns="http://www.w3.org/2000/svg" viewBox="0 0 251.3 223.92"><defs><style>.cls-1{fill:#090103;}.cls-2{fill:#909090;}.cls-3{fill:#040000;}</style></defs><title>Artboard 15</title><g id="MI"><polygon class="cls-1" points="115.08 6.14 111.18 6.14 111.18 8.15 115.08 8.15 115.08 18.74 117.48 18.74 117.48 0.15 115.08 0.15 115.08 6.14"/><path class="cls-1" d="M109,4.83V1.67h-2.41V4.83c0,3.5-1.86,6.86-4.53,8.17l-.17.08L103.35,15l.11-.06a9.35,9.35,0,0,0,4.31-5.43A9,9,0,0,0,112,14.63l.12,0,1.42-1.93-.17-.08C110.73,11.45,109,8.29,109,4.83Z"/><polygon class="cls-1" points="119.98 9.62 127.16 9.62 127.16 10.78 121.94 10.78 121.94 12.66 132.37 12.66 132.37 13.67 121.98 13.67 121.98 18.55 135.24 18.55 135.24 16.65 124.34 16.65 124.34 15.45 134.71 15.45 134.71 10.78 129.57 10.78 129.57 9.62 136.77 9.62 136.77 7.66 119.98 7.66 119.98 9.62"/><path class="cls-1" d="M128.39,7c4.22,0,6.65-1.21,6.65-3.3S132.61.37,128.39.37s-6.65,1.21-6.65,3.31S124.16,7,128.39,7Zm0-4.74c2.69,0,4.18.51,4.18,1.44s-1.49,1.43-4.18,1.43-4.19-.51-4.19-1.43S125.69,2.24,128.39,2.24Z"/><path class="cls-1" d="M145,4.84V1.71H142.6V4.84c0,3.56-1.94,6.92-4.71,8.18l-.17.07,1.41,2,.12-.06a9.43,9.43,0,0,0,4.58-5.54,9.15,9.15,0,0,0,4.45,5.14l.11,0,1.4-1.91-.18-.08A8.66,8.66,0,0,1,145,4.84Z"/><rect class="cls-1" x="150.85" y="0.17" width="2.41" height="18.58"/><path class="cls-1" d="M168.87,13h-7.5V11.11H159v7.38h12.25V11.11h-2.36Zm0,3.53h-7.5V14.92h7.5Z"/><rect class="cls-1" x="168.85" y="0.19" width="2.39" height="10.37"/><path class="cls-1" d="M167.52,9.65l-.28-2-.16,0a45.13,45.13,0,0,1-7.87.54V6.51h6.23V1H156.8V3h6.3V4.63h-6.26v5.59h1.69a51.89,51.89,0,0,0,8.84-.54Z"/><path class="cls-1" d="M174.84,14.26h8.86V1.91h-8.86Zm2.35-10.39h4.17v8.41h-4.17Z"/><rect class="cls-1" x="186.76" y="0.17" width="2.41" height="18.58"/><polygon class="cls-1" points="191.81 9.54 198.99 9.54 198.99 10.76 193.77 10.76 193.77 12.64 204.2 12.64 204.2 13.69 193.81 13.69 193.81 18.55 207.07 18.55 207.07 16.65 196.17 16.65 196.17 15.47 206.54 15.47 206.54 10.76 201.4 10.76 201.4 9.54 208.62 9.54 208.62 7.58 191.81 7.58 191.81 9.54"/><path class="cls-1" d="M193.56,6.89c3-.36,5.42-1.56,6.66-3.3,1.23,1.74,3.64,2.94,6.65,3.3l.12,0L207.83,5l-.22,0c-3.52-.35-6.17-2.08-6.17-4V.27H199V1c0,2-2.65,3.69-6.17,4l-.21,0,.83,1.89Z"/><path class="cls-1" d="M217.38,7.9l0,.17,2.34.25,0-.14a27.8,27.8,0,0,0,.44-5.41V1.56H210.7v2h7.11A25.44,25.44,0,0,1,217.38,7.9Z"/><polygon class="cls-1" points="214.74 12.66 212.33 12.66 212.33 18.37 225.02 18.37 225.02 16.37 214.74 16.37 214.74 12.66"/><polygon class="cls-1" points="224.44 5.96 224.44 0.19 222.03 0.19 222.03 14.18 224.44 14.18 224.44 7.99 226.86 7.99 226.86 5.96 224.44 5.96"/><path class="cls-1" d="M221.39,10.7l-.18-1.82-.16,0a50.31,50.31,0,0,1-5.47.47V5.72h-2.36V9.46c-1.24,0-2.43,0-3.48,0h-.17l.26,2H210a68.21,68.21,0,0,0,11.28-.77Z"/><path class="cls-2" d="M113,40.84a6.82,6.82,0,0,1-4.34,1.38,7.08,7.08,0,0,1-5.18-2,5.06,5.06,0,0,1-.64-.86l2.09-1.45a4.54,4.54,0,0,0,4.12,2,4.76,4.76,0,0,0,1-.09c.28-.06,1.58-.42,1.58-1.66a1.38,1.38,0,0,0-.24-.79c-.46-.6-1.66-.77-2.32-.92l-1.58-.36a8,8,0,0,1-2-.62,3.34,3.34,0,0,1-1.9-3.08,4,4,0,0,1,.51-2c.6-1,2-2.18,4.74-2.18A6.27,6.27,0,0,1,114.12,31l-2.05,1.52a3.85,3.85,0,0,0-3.44-2c-.14,0-1.81,0-2.35,1a1.15,1.15,0,0,0-.16.6,1.17,1.17,0,0,0,.17.61c.32.54,1.06.71,2.28,1l1.37.31a6.2,6.2,0,0,1,3.54,1.69,3,3,0,0,1,.77,2.24A3.52,3.52,0,0,1,113,40.84Z"/><path class="cls-2" d="M116.41,41.88V28.59h9.45v2.23h-7v3.12h6.41v2.14h-6.41v3.56h7.47v2.24Z"/><path class="cls-2" d="M138.54,40.32a6,6,0,0,1-2.26,1.52,6.74,6.74,0,0,1-2.32.38,5.59,5.59,0,0,1-4.55-2,7.17,7.17,0,0,1-1.77-4.91,8.1,8.1,0,0,1,.4-2.58,6.28,6.28,0,0,1,10.68-2.32,7.06,7.06,0,0,1,1.66,4.88A7.5,7.5,0,0,1,138.54,40.32Zm-1.45-8A3.48,3.48,0,0,0,134,30.53a3.75,3.75,0,0,0-1.69.4,4.48,4.48,0,0,0-2.11,4.23c0,.51,0,3,1.88,4.18a3.54,3.54,0,0,0,2,.56,3.64,3.64,0,0,0,1.52-.32,4.24,4.24,0,0,0,2.32-4.08A5.91,5.91,0,0,0,137.09,32.28Z"/><path class="cls-2" d="M153.26,39.17c-.43,1.34-1.95,3-5.21,3a5.47,5.47,0,0,1-4.21-1.58,4,4,0,0,1-.85-1.43,9,9,0,0,1-.21-2.71V28.59h2.51v8.17a4.3,4.3,0,0,0,.13,1.47c.24.79,1,1.58,2.73,1.58.32,0,2.14,0,2.69-1.51a4.68,4.68,0,0,0,.17-1.67v-8h2.48v7.66A8.93,8.93,0,0,1,153.26,39.17Z"/><path class="cls-2" d="M156.57,41.88V28.59h2.5v11h5.27v2.26Z"/><path class="cls-2" d="M181.69,41.88,181.93,31l-2.88,10.91h-2.24L173.94,31l.24,10.91h-2.43V28.59h3.61l2.6,9.86,2.56-9.86h3.59V41.88Z"/><path class="cls-2" d="M197.62,39.17c-.43,1.34-2,3-5.21,3a5.49,5.49,0,0,1-4.22-1.58,3.83,3.83,0,0,1-.84-1.43,9,9,0,0,1-.21-2.71V28.59h2.5v8.17a4.3,4.3,0,0,0,.13,1.47c.25.79,1,1.58,2.73,1.58.32,0,2.15,0,2.69-1.51a4.68,4.68,0,0,0,.17-1.67v-8h2.48v7.66A9.29,9.29,0,0,1,197.62,39.17Z"/><path class="cls-2" d="M210,40.84a6.84,6.84,0,0,1-4.35,1.38,7,7,0,0,1-5.17-2,4.58,4.58,0,0,1-.64-.86l2.09-1.45a4.52,4.52,0,0,0,4.12,2,4.73,4.73,0,0,0,1-.09c.29-.06,1.58-.42,1.58-1.66a1.31,1.31,0,0,0-.24-.79c-.45-.6-1.66-.77-2.31-.92l-1.58-.36a8,8,0,0,1-2-.62,3.34,3.34,0,0,1-1.9-3.08,4,4,0,0,1,.51-2c.6-1,2.05-2.18,4.74-2.18A6.26,6.26,0,0,1,211.14,31l-2,1.52a3.84,3.84,0,0,0-3.44-2c-.13,0-1.81,0-2.35,1a1.14,1.14,0,0,0-.15.6,1.08,1.08,0,0,0,.17.61c.32.54,1.05.71,2.27,1L207,34a6.17,6.17,0,0,1,3.53,1.69,3,3,0,0,1,.78,2.24A3.55,3.55,0,0,1,210,40.84Z"/><path class="cls-2" d="M213.44,41.88V28.59h9.44v2.23h-7v3.12h6.42v2.14h-6.42v3.56h7.47v2.24Z"/><path class="cls-2" d="M235.75,39.17c-.44,1.34-2,3-5.22,3a5.47,5.47,0,0,1-4.21-1.58,4,4,0,0,1-.85-1.43,9.4,9.4,0,0,1-.2-2.71V28.59h2.5v8.17a4.3,4.3,0,0,0,.13,1.47c.25.79,1,1.58,2.73,1.58.32,0,2.14,0,2.69-1.51a4.68,4.68,0,0,0,.17-1.67v-8H236v7.66A9.29,9.29,0,0,1,235.75,39.17Z"/><path class="cls-2" d="M248.88,41.88,249.12,31l-2.88,10.91H244L241.12,31l.25,10.91h-2.43V28.59h3.61l2.6,9.86,2.56-9.86h3.59V41.88Z"/><path class="cls-2" d="M114.16,59a5.88,5.88,0,0,1-2.26,1.53,6.73,6.73,0,0,1-2.31.37,5.61,5.61,0,0,1-4.56-2,7.15,7.15,0,0,1-1.77-4.91,8,8,0,0,1,.4-2.57A6.27,6.27,0,0,1,114.35,49,7.08,7.08,0,0,1,116,53.91,7.48,7.48,0,0,1,114.16,59Zm-1.45-8a3.48,3.48,0,0,0-3.09-1.75,3.66,3.66,0,0,0-1.69.4c-.94.5-2.11,1.75-2.11,4.23,0,.51,0,2.95,1.88,4.18a3.63,3.63,0,0,0,2,.56,3.71,3.71,0,0,0,1.53-.32,4.25,4.25,0,0,0,2.31-4.08A5.91,5.91,0,0,0,112.71,51Z"/><path class="cls-2" d="M120.89,49.49V52.8h5.55v2.13h-5.55v5.63h-2.46V47.27h8.78v2.22Z"/><path class="cls-2" d="M142.28,60.56l-.77-2.6h-5l-.77,2.6h-2.67l4.49-13.29h2.83l4.53,13.29ZM139,49.66l-1.84,6.12h3.67Z"/><path class="cls-2" d="M154,60.56l-2.62-4.93h-2.24v4.93h-2.46V47.27h5.44a4.36,4.36,0,0,1,3.57,1.62,4.3,4.3,0,0,1,.81,2.6,4.58,4.58,0,0,1-.25,1.48,3.62,3.62,0,0,1-2.37,2.17l3,5.42Zm-.85-10.75a3.41,3.41,0,0,0-2-.39h-2v4.14H150a6.94,6.94,0,0,0,2.95-.32,2.07,2.07,0,0,0,.17-3.43Z"/><path class="cls-2" d="M163.85,49.51V60.56h-2.48V49.51h-3.61V47.27h9.76v2.24Z"/><path class="cls-3" d="M154.51,179.08l-.41-.35.28-.46-3.57-11-.5-.2.13-.53-6.78-9.34-.54,0,0-.54-9.39-6.82-.5.08-.08-.49-3.75-2.73L125.6,144l-.5.07-.08-.49-3.75-2.73-3.76-2.73-.5.08c0-.2-.05-.31-.08-.5l-3.75-2.73-3.76-2.73-.5.08c0-.2,0-.3-.08-.5L105.08,129l-3.75-2.73-.5.08-.08-.49L97,123.16l-3.75-2.73-.5.08-.08-.49-3.76-2.73-3.75-2.73-.5.07-.08-.49-3.76-2.73-3.75-2.73-.5.08c0-.2,0-.31-.08-.5l-3.76-2.73L69,102.8l-.5.08-.08-.5-3.76-2.73-3.75-2.73-.5.08-.08-.49-3.76-2.74L52.78,91l-.49.08-.08-.49L48.45,87.9l-3.76-2.73-.49.07-.08-.49L40.36,82,36.6,79.29l-.49.08c0-.2,0-.3-.08-.5l-3.76-2.73-3.76-2.73-.49.08c0-.19-.05-.3-.08-.5l-3.76-2.73-3.76-2.73-.49.08-.08-.49-7-5.08-.46,0,0-.46L7.8,55.23l-.44-.1c.06-.17.11-.27.17-.43L5.09,47.19,4.7,47c.11-.13.19-.21.3-.35V38l-.35-.35L5,37.26V28l-.35-.35L5,27.26V18l-.35-.35L5,17.26V11.78c-.1-.12-.16-.21-.26-.34l.4-.16L7.25,7.62c0-.16,0-.27-.06-.43l.43.06,3.65-2.11.17-.4.34.26h5.48l.36-.35L18,5h9.29l.36-.35L28,5h9.29l.36-.35L38,5h9.29l.36-.35L48,5h9.29l.36-.35L58,5h9.29l.36-.35L68,5h9.29l.36-.35L78,5h9.29l.36-.35V.35L87.26,0H78c-.14.14-.21.22-.35.35L77.26,0H68l-.35.35L67.26,0H58c-.14.14-.21.22-.35.35L57.26,0H48l-.35.35L47.26,0H38l-.35.35L37.26,0H28l-.35.35L27.26,0H18l-.35.35h0L17.26,0H10.63l-.34.45L9.77.23,4.12,3.49c0,.23,0,.33-.07.56l-.56.07L.23,9.77l.22.52L0,10.63v6.63l.35.36h0L0,18v9.29l.35.36L0,28v9.29l.35.36h0L0,38v9.31l.41.35-.28.46L3,56.89l.5.21c-.06.21-.08.31-.13.52L8.8,65.11l.53,0,.05.54,7.53,5.47.5-.08c0,.2,0,.3.07.5l3.76,2.73L25,77l.5-.08c0,.19,0,.3.07.5l3.76,2.73,3.76,2.73.5-.08c0,.19,0,.3.08.49l3.75,2.73,3.76,2.73.5-.07.08.49,3.75,2.73,3.76,2.73.5-.08c0,.2,0,.31.08.5l3.75,2.73,3.76,2.73.5-.08c0,.2,0,.3.08.5l3.75,2.73,3.76,2.73.5-.08c0,.19,0,.3.08.5l3.75,2.73,3.76,2.73.5-.08.08.49,3.76,2.73,3.75,2.73.5-.07.08.49L86,121.33l3.75,2.73.5-.08c0,.2,0,.31.08.5l3.76,2.73,3.75,2.73.5-.08c0,.2,0,.3.08.5l3.76,2.73,3.75,2.73.5-.08.08.49,3.76,2.74L114,141.7l.5-.08.08.49,3.76,2.73,3.75,2.73.5-.07.08.49,3.76,2.73,3.76,2.73.49-.08c0,.2.05.31.08.5l8.84,6.42.46,0,0,.46,6,8.24.24.06.2.05-.17.43,3.14,9.68.4.24-.3.35V190l.3.35-.4.24-3.14,9.68.17.43-.44.11L140,209l0,.45-.46,0-8.24,6-.06.23,0,.22-.43-.17-9.68,3.14-.24.4-.35-.3H110.35l-.35.3-.24-.4-9.68-3.14-.43.17-.11-.45L90.71,209l-.5.08-.08-.49-3.76-2.73-3.75-2.73-.5.07-.08-.49L78.28,200l-3.76-2.73-.49.08c0-.2,0-.31-.08-.5l-3.76-2.73-3.76-2.73-.49.08c0-.2,0-.3-.08-.5L62.1,188.2l-3.76-2.73-.49.08-.08-.49L54,182.32l-3.76-2.73-.49.08-2.52,3.47c0,.2,0,.31.08.5l3.75,2.73,3.76,2.73.5-.08c0,.2,0,.3.08.5l3.75,2.73L62.92,195l.5-.08.08.49,3.75,2.74L71,200.86l.5-.08.08.49L75.34,204l3.76,2.73.5-.07.08.49,3.75,2.73,3.76,2.73.5-.08.08.5,9.38,6.82.53-.13c.08.2.12.3.21.5l11,3.57.46-.28.35.41h11.55l.35-.41.17.1.29.18,11-3.57.2-.5.53.13,9.34-6.79,0-.53.54-.05,6.78-9.33c-.05-.22-.07-.32-.13-.53l.5-.21,3.57-11-.28-.46c.16-.15.24-.21.41-.35Z"/></g></svg>