<svg width="416" height="416" viewBox="0 0 416 416" fill="none" xmlns="http://www.w3.org/2000/svg">
<g clip-path="url(#clip0_933_3336)">
<rect width="416" height="416" rx="70" fill="#FF671A"/>
<path d="M325.234 216.025C324.76 222.278 323.772 228.414 322.349 234.358C310.415 283.681 266.393 321.504 213.439 325.247C187.634 327.061 163.41 321.002 142.979 309.269C134.088 304.136 132.546 292.172 139.857 285.032L284.057 144.163C291.368 137.023 303.618 138.567 308.874 147.25C311.522 151.65 313.893 156.204 315.948 160.951C323.258 177.663 326.696 196.42 325.234 216.025Z" fill="white"/>
<path d="M90.7656 199.975C91.2398 193.722 92.2277 187.586 93.6504 181.642C105.585 132.319 149.607 94.4963 202.561 90.7526C228.366 88.9387 252.59 94.998 273.021 106.731C281.912 111.864 283.453 123.828 276.143 130.968L131.943 271.837C124.632 278.977 112.382 277.433 107.126 268.75C104.478 264.35 102.107 259.796 100.052 255.049C92.7414 238.337 89.3034 219.58 90.7656 199.975Z" fill="white"/>
</g>
<defs>
<clipPath id="clip0_933_3336">
<rect width="416" height="416" fill="white"/>
</clipPath>
</defs>
</svg>
