<svg id="Layer_1" data-name="Layer 1" xmlns="http://www.w3.org/2000/svg" viewBox="0 0 385.55 127.97"><defs><style>.cls-1{fill:#fff;}</style></defs><title>Artboard 43</title><path class="cls-1" d="M380.57,12.9A22.2,22.2,0,0,0,375,8.72a44.55,44.55,0,0,0-15.93-4.56,120.44,120.44,0,0,0-12-.55c-4.37,0-8.67.18-12.73.37-1,.06-2,.08-3,.1-1.29,0-2.59.07-3.88.14l-.72.06c-1.8.17-3.5.27-5.42.37a20.39,20.39,0,0,0-2.08-.11c-.43,0-.87,0-1.31,0-3.73.12-7.59.25-11.34.5-3.95.26-7.8.65-11.76,1.2l-.3,0c-3.24.51-6.46,1.15-9.61,1.81a16.89,16.89,0,0,0-1.63-.86,18.61,18.61,0,0,0-7.09-2.72,17.63,17.63,0,0,0-2.8-.23q-.54,0-1.08,0a16.94,16.94,0,0,0-8.63.37,17.34,17.34,0,0,0-3.61.65A22.66,22.66,0,0,0,246.34,16.9l-.46.87a16.94,16.94,0,0,0-4-2.82l-.25-.16a32,32,0,0,0-2.78-1.6,17,17,0,0,0-7.6-1.79l-1,0-1,0a18.56,18.56,0,0,0-3.42.32h-.5a17.54,17.54,0,0,0-6.53,1.21,38.08,38.08,0,0,0-17.8-9l-.11,0A40.27,40.27,0,0,0,192,2.75a28.51,28.51,0,0,0-4.27.32A45,45,0,0,0,168,11.34a20.06,20.06,0,0,0-4.43-2.53,24.23,24.23,0,0,0-4.62-2.16l-.28-.15c-.7-.37-1.57-.82-2.59-1.29a17.69,17.69,0,0,0-6-1.65,1.86,1.86,0,0,1-.31-.06c-.32-.08-.64-.15-1-.21l-.36-.09a38.82,38.82,0,0,0-8.82-.93c-1.75,0-3.39.09-4.84.16-.71,0-1.42.08-2.13.1-2.51.08-4.93.3-7.11.52a17.14,17.14,0,0,0-5.23-.89c-.51-.09-1-.15-1.55-.19s-1-.06-1.52-.06a19.16,19.16,0,0,0-13.69,5.74,17.06,17.06,0,0,0-5.27-3.26A21.66,21.66,0,0,0,93.28,2.1,18.87,18.87,0,0,0,86.09.42,16.75,16.75,0,0,0,82.35,0a17,17,0,0,0-4.12.51l-.15,0A19.59,19.59,0,0,0,67.62,6.6a58,58,0,0,0-5.16,5.71c-3.16,4-6.16,8-9.16,12.17l-.08.11C43.71,38,34.34,52,24.67,67.21c-2.88,1.05-5.73,2.2-8.43,3.4a34.62,34.62,0,0,0-7.63,4.6l-.3.22A18.71,18.71,0,0,0,.94,96.78a17.21,17.21,0,0,0,1.8,3.74c.22.46.44.88.65,1.26a17.36,17.36,0,0,0,2.28,3.09A20.65,20.65,0,0,0,8.6,118.78a17.08,17.08,0,0,0,6.61,6,17.64,17.64,0,0,0,10,3.18,17.27,17.27,0,0,0,5.66-1,17,17,0,0,0,12.42-5.81,21.47,21.47,0,0,0,3.52-5.28,17.09,17.09,0,0,0,7,5.68,18.49,18.49,0,0,0,2,1,16.86,16.86,0,0,0,7.1,1.56A17.14,17.14,0,0,0,69,123a16.94,16.94,0,0,0,9-3.59,29.53,29.53,0,0,0,3.26.73,17.86,17.86,0,0,0,10.6,3.4,16.82,16.82,0,0,0,5.65-1,17,17,0,0,0,11.5-4.93l1.47-.44,2.53-.75.28-.09a81.19,81.19,0,0,0,15-6.4c.36-.21.72-.43,1.06-.66a19.72,19.72,0,0,0,1.87-1.39l.42-.32c.27-.22.55-.45.82-.69s.48-.28.71-.43a16.84,16.84,0,0,0,2.92-.94l.09.22.12.23c4.77,9.54,13.42,15,23.74,15a29.53,29.53,0,0,0,3.36-.2l1.69-.15,2-.19.43,0a34.38,34.38,0,0,0,18.89-8.07,39.8,39.8,0,0,0,6.07-5c.49-.47,1-1,1.31-1.21s.56-.5.83-.75a23.91,23.91,0,0,0,13.45,9.68c.39.11.78.21,1.18.3l.22,0a28.2,28.2,0,0,0,6.29.77,22.94,22.94,0,0,0,7.12-1.12c.53-.16,1.06-.33,1.58-.51l1.06-.34c.31-.06.61-.13.92-.21.68-.18,1.35-.37,2-.59a21.89,21.89,0,0,0,10.63,7.1,22.73,22.73,0,0,0,7.73,1.4,21.56,21.56,0,0,0,9.08-2,20.42,20.42,0,0,0,9.45-3.82c.39-.28.76-.59,1.12-.9a50.36,50.36,0,0,0,4.28-4.4,18,18,0,0,0,4.54-11.92,17,17,0,0,0-1.47-6.92,17,17,0,0,0-1.8-4,55.17,55.17,0,0,1,4.29-16.23,1.11,1.11,0,0,1,.07-.16c2.36-5.66,4.86-11.41,7.31-17h0q-1,4-1.71,7.95c-.25,1.35-.5,2.71-.74,4.06-1.54,8.37-3.12,17-3.59,26a68.7,68.7,0,0,0,0,9.31A20.51,20.51,0,0,0,286,117.37a17.12,17.12,0,0,0,4.72,2.49,19.25,19.25,0,0,0,7.67,2.29c.47,0,.94.06,1.42.06a17,17,0,0,0,7.6-1.79l.31-.16a17.85,17.85,0,0,0,7-1.9,17,17,0,0,0,8.28-9.19v0a22.55,22.55,0,0,0,2.44-9.65,16.82,16.82,0,0,0,1.69-4.15c.71-2.7,1.41-5.28,2.11-7.86.05-.17.09-.34.13-.51a207,207,0,0,1,6.82-23.3c1.74-4.54,3.23-9,4.68-13.22l.47-1.4c1.86-.13,3.58-.35,5.13-.55.83-.1,1.64-.21,2.44-.28s1.83-.19,2.75-.3c1.87-.2,3.63-.4,4.92-.4.2,0,.4,0,.6,0,.38,0,.76,0,1.13,0a21.61,21.61,0,0,0,5.81-.79,22.55,22.55,0,0,0,9.07-2.31,18.9,18.9,0,0,0,10-11c.16-.29.33-.6.49-.93A17,17,0,0,0,380.57,12.9Z"/><path d="M79,80.13c-.72.12-1.32,0-1.8.12a11.64,11.64,0,0,0-2,.12c-2.16.35-2.4.59-3,2.76C71.19,88,70,93.08,69,98c-.36,1.92-.24,3.84-.48,5.64a3.44,3.44,0,0,1-1,2.4,17.93,17.93,0,0,0-3.36-.72c-.24.36-.84,1.08-1.32,1.8a4,4,0,0,1-.72-.36c-.48-.48-.36-1.32-1.44-.72-.12,0-.48-.72-.6-1.08,0-2.52-.12-4.92.12-7.44.6-4.2,1.56-8.39,2.4-12.72.12-.47.12-1.2.24-1.92-2.4.49-4.68.84-6.6,1.45-3.36.84-6.6,1.8-10,2.75a14.26,14.26,0,0,0-4.08,1.56v.24l-.12.25.12-.25c-.36.25-.72.25-1,.48-3,4.92-5.88,9.84-8.76,14.76a5.34,5.34,0,0,0-.84,3.12,3.65,3.65,0,0,1-1.2,2.76c-.24-1.44-3,1-2.88-1.56a4.86,4.86,0,0,1-1.2,1.56,2.82,2.82,0,0,1-1.2,1c-.36,0-.6-.6-.84-.84a2,2,0,0,1-.12-.84,9.73,9.73,0,0,1-1.32.36c-.84-1.32-.48-3.12.24-4.92A63.83,63.83,0,0,1,27,96.44c.48-1,1-2,1.44-2.88-2,.36-3.6.72-5.16.84-.6.12-1.08-.24-1.8-.36a15.43,15.43,0,0,0-2.28-.48c-1.32,0-1.44-.24-.6-1.68-.6-.12-1.44-.12-1.56-.48a1.62,1.62,0,0,1,.84-1.92,23.7,23.7,0,0,1,5-3.23c3.48-1.57,7.2-3,10.8-4.21A5.36,5.36,0,0,0,37,79.53c9.72-15.36,19.68-30.36,30.12-45.12,2.76-3.84,5.64-7.68,8.76-11.64A47,47,0,0,1,80,18.33c.84-1,1-1,2.4-1.32,0,.24.24.48.36.72s.24.6.48.72c3-1.44,3-1.44,3.48.48,1.32-1,1.32-1,4.2,1-.6,1.08-1.2,2.28-1.92,3.72,1.56-1,1.56-2.52,3.12-3.36.24.48.72.84.6,1.32A6.39,6.39,0,0,1,91,25.65a1.62,1.62,0,0,0-.6,1.2A2.22,2.22,0,0,1,89,29.13a2.07,2.07,0,0,1-.36,2.52A7.82,7.82,0,0,0,86.43,36c-.12.48-.48,1.08-.84,2a5.61,5.61,0,0,0-1.2-.6c-.12,1-.24,1.68-.36,2.4.36.24.6.84,1.2,1.32.72-1.44,1.56-2.64,2.16-4.08-.36,2.4-6.12,17-7.44,19-.12-1.44.72-2.88,1.32-4.32s1.2-3.12,1.68-4.8a35,35,0,0,0,1.68-4.56c-1.44,2.16-1.32,4.68-4,6.12a15.63,15.63,0,0,1-.84,4.92,19.29,19.29,0,0,0-1.68,4.56,7,7,0,0,0-.72,2.4c-.24.84-1,1.8-1.2,2.64-.48,1.92-.72,3.72-1.2,5.52-.36,1.44-1,2.64-1.32,4,1.44-1.45,1.2-3,1.8-4.44s1.2-3,1.8-4.8c.6.72.24,1.44,0,2-.72,2.4-1.32,4.8-2.16,7.2-.12.59-.12,1-.24,1.44,1.56.84,3.24,1.68,4.8,2.52,1,.47,1,1.43.84,2.27A1.57,1.57,0,0,1,79,80.13ZM31.71,93.2c-2.4,1.8-6.48,9.6-6.6,12.36C27.51,101.36,29.67,97.28,31.71,93.2ZM29.79,102c0-.12-.12-.12-.36-.12-.48,1.08-1,2.28-1.44,3.48h.48A31.92,31.92,0,0,0,29.79,102Zm5.28-4.8c-1.8,2.28-4.08,6.72-4.2,8.76C32.31,102.92,33.75,100,35.07,97.16Zm-2.64,8.76c.72-1.8,1.08-3.36,2.76-4.68C34.35,102.68,33.39,104.24,32.43,105.92Zm4.68-8.52c-.72,1.44-1.32,2.52-1.92,3.84C35.07,99.8,36.15,98.72,37.11,97.4ZM37.23,94c-.12,0-.12,0-.24-.12-.12.24-.48.48-.6.6.12.12.12.12.36.12S37,94.28,37.23,94Zm.12,2.88c-.12.12-.12.24-.24.24S37.23,97,37.35,96.92Zm-.24.24v0Zm1.8-2.4a24.33,24.33,0,0,0-1.56,2.16,19.58,19.58,0,0,1,1.08-2.28A.91.91,0,0,1,38.91,94.76Zm42.36-74c-5.52,3.84-40,54.72-42.12,59.52.72.12,1-.37,1.44-1,1.08-1.56,2-3.37,3.12-4.8,8-11.76,15.72-23.4,23.88-35,4-5.76,8.52-11,12.72-16.8C80.79,22.17,81.51,21.57,81.27,20.73ZM40.71,91.17c.48-.61,1-1.33,1.44-2-.36.71-.6,1.43-1,2.27C41,91.4,40.83,91.4,40.71,91.17Zm6.48-13.09a24.12,24.12,0,0,0,4.44-6.83C50.19,72.45,47.19,77,47.19,78.08ZM71.43,53.25a9.52,9.52,0,0,1,.24-2c.36-1.56,1-2.88,1.44-4.56a2.34,2.34,0,0,0,.12-1h-.36c-3.72,4.8-7.32,9.84-10.92,14.76-.12,0-.24-.12-.48-.12,2.88-4,5.76-7.8,8.28-11.64-7.44,9.48-14.4,19.2-21.12,29.39,5.64-1,10.8-1.91,16.08-3a8.55,8.55,0,0,1,.6-1.43c1.56-6.12,3.36-12.36,5-18.36A3.48,3.48,0,0,1,71.43,53.25ZM52.83,70.17A13.4,13.4,0,0,0,54,68C53.55,68.61,52.59,69.08,52.83,70.17Zm4.92-4.44c.12,0,.12.12.24.12a12.65,12.65,0,0,0-.84,1.32c-.12,0-.12-.12-.24-.12C57.27,66.57,57.51,66.09,57.75,65.73Zm.48-3.24c.72-1.08,1.2-1.92,1.8-3C58.59,60.45,58.23,60.81,58.23,62.49Zm2.28-.6h.24c-.24.48-.48.72-.6,1a.37.37,0,0,1-.24.12v-.12A4.21,4.21,0,0,1,60.51,61.89Zm.84-4.2c-1.2.6-1.56,1.08-1.32,1.68A6.82,6.82,0,0,0,61.35,57.69ZM64.11,88.4a2.58,2.58,0,0,1,.24-1.32,1.22,1.22,0,0,1-.6.13,2.43,2.43,0,0,0,0,1.31C64,88.4,64,88.4,64.11,88.4Zm1.08-3.84c0-.48.24-1.19.24-1.68-.84.61-1,1.2-.6,1.8C65,84.68,65.07,84.56,65.19,84.56Zm1.32,8.16a4.26,4.26,0,0,1,.24-1.2c-.12,0-.12,0-.24.12a4.45,4.45,0,0,1-.24,1.08ZM68.19,86a14.21,14.21,0,0,1,.48-2.16c.12-1.2.24-1.2-.36-1.55-.24,1.2-.6,2.51-1,3.71Zm.36-17.15h-.12c-.12.72-.36,1.44-.48,2h.12C68.19,70.29,68.43,69.57,68.55,68.85Zm2-3.6a10.82,10.82,0,0,1-1.08-1.2c-.24,1.08-.6,2-.84,3.24.12,0,.24,0,.24.12C69.39,66.69,70.11,66,70.59,65.25Zm9.84-28.32a10.12,10.12,0,0,0-3.6,4.92,10.75,10.75,0,0,1-1,2.76c-1,1.32-.84,2.4-1.32,3.72s-1.2,2.4-1.56,3.6c-1,4.08-2.28,8-3.48,12.12a4.92,4.92,0,0,1,1.32-.12c.12-.48.6-1.08.48-1.32-.6-1.92.6-3.84,1.68-5.64a2.32,2.32,0,0,0,.72-1.56,9,9,0,0,1,1.2-3.72A1.64,1.64,0,0,0,75.15,50a2,2,0,0,1,.72-1.92C77,46.77,77.31,45.93,77,44.73c-.12-.12.12-.36.36-.72.48-1.08,1.08-2.16,1.56-3.36A34.56,34.56,0,0,0,80.43,36.93Zm-10.2,50.4c.24-.85.36-1.57.48-2.16C69.87,85.76,69.39,86.48,70.23,87.33Zm.48-14.16c.12,0,.36-.13.48-.13a1.41,1.41,0,0,0,.12-1h-.48C71,72.33,70.83,72.69,70.71,73.17Zm.12,9.47c0,.36-.12.61-.12.85h.48c-.12-.24,0-.61,0-.85ZM85,34.89a6.34,6.34,0,0,1,1.44.12c-.24-.84-.6-1.32-.48-1.92a21.91,21.91,0,0,1,1.32-4,12.8,12.8,0,0,1,1.08-2.28,3.11,3.11,0,0,0-1.68,1.8c-.72,2.28-2.52,4.56-3.36,7s-1.92,4.8-2.88,7.32c-.48,1.44-1,3-1.44,4.2-.84,1.8-1.56,3.6-2.28,5.28-.24,1.08-1.44,2.52-1.56,3.48.12,1.44-.6,2.64-.84,3.84-.84,3.24-1.68,6.36-2.52,9.72-.12.48-.24.84-.36,1.2C75.51,58.65,79.47,46.65,85,34.89Zm-5.52,22.2c.24,1-.36,2.88-1.68,5.52A11.81,11.81,0,0,1,79.47,57.09Zm.12-21.24a.12.12,0,0,0,.12.12,20.36,20.36,0,0,0,1.2-1.68c-.12,0,0-.12-.12-.12a.37.37,0,0,0-.24.12C80.19,34.89,79.83,35.37,79.59,35.85Zm6.24,8.52h.36c-.36.84-.6,1.44-1,2.16H85C85.35,45.81,85.47,45.09,85.83,44.37ZM87,42.45h-.36c.12-.36.48-.84.6-1.2h.36C87.39,41.61,87.27,42.09,87,42.45Zm1.32-7.08a94.5,94.5,0,0,1,4.92-12.6A54.74,54.74,0,0,1,88.35,35.37Z"/><path d="M160.35,36.93c-.6.72-.84,1.56-1.92,1.8a4.5,4.5,0,0,1,.12-1.2c-3.72,2.16-6.6,5.28-9.72,7.68a39.19,39.19,0,0,0,7.68-4.56,11,11,0,0,1-2.64,2.64,54.91,54.91,0,0,1-9.12,5.64,59.5,59.5,0,0,1-5.64,2.64,21,21,0,0,0-3.84,2.52c-.36,1,.24,1.56,1.2,1.56s1.2.84,1.56.72c1.44-.48,1.92.36,2.88.72a14.42,14.42,0,0,1,6.48,8c1.08,3.72-.24,7.56-3.12,11.16a56.66,56.66,0,0,1-9.6,8.88c-3.84,2.87-7.8,5.27-11.76,7.67a18.91,18.91,0,0,0-1.8,1.44c-.36.24-.72.6-1.08.84a64.19,64.19,0,0,1-11.88,5c-2.76.84-5.4,1.56-8.16,2.52A5.84,5.84,0,0,0,98.31,104a13.58,13.58,0,0,0-1.2,1.56c-1.2-.24-2.4-.48-3.48-.72L92,106.52c-1.32,0-.72-1.2-1.2-1.92-.24.12-.6.24-1.08.48-.24-1.32-1.2-1.56-2.4-1.56-4.08.24-7-1.32-10.08-2.76-1.56-.72-1.56-2.52-2.16-4a2.32,2.32,0,0,1,.36-1.2C76,94,79,91.88,81,91.76a12,12,0,0,0-1.2,1.32c-.36.48-.72.84-1.44,1.68.84-.12,1.2,0,1.56-.24.72-.36,1.2-1,1.92-1.32.24-.24.72-.24,1.68-.36-.84,1-1.32,1.56-2,2.52,1.08-.48,1.8-.84,2.52-1.2,1.44,2.16,4.08.72,6.48.6.24-.84.6-1.56.72-2.28,2.52-10.31,5.64-20.51,9-30.83,1.08-3.24,2.16-6.36,3.24-9.6.36-1.32.24-1.44-1-1.68a42.59,42.59,0,0,1-5.64-.72,44.64,44.64,0,0,1-10-3.6,8.24,8.24,0,0,1-3.72-5.64c-.6-2,1-4.2,2.76-5.88a32.24,32.24,0,0,1,7.92-4.92,80,80,0,0,1,17.4-6.36A4.84,4.84,0,0,0,114.51,21c.6-1,1.32-2.16,2.88-2a4,4,0,0,0,0,1.68c0,.36.12.84.48.84a1.65,1.65,0,0,0,1-.6,10.16,10.16,0,0,0,1.2-1.68,14.38,14.38,0,0,0,1.44,1.32c3.84-.24,7.8-.84,11.64-1s7.8-.6,11.4.24c0,.48.12,1,.12,1.68a9.55,9.55,0,0,0,1-1.44,24.83,24.83,0,0,0,2.64.48,1.08,1.08,0,0,1,.6.12c1.32.6,2.52,1.32,3.84,1.92,0,.12.24.12.36.12a7.59,7.59,0,0,1,2.76,1.44c.24.12.48.12.72.24,1.44.48,1.44.48,1.44,2,.36.36.84-.6,1.56-.12A8.11,8.11,0,0,1,162,30.33a2.15,2.15,0,0,1-.84,2.76C162,34.41,161.43,35.73,160.35,36.93ZM92.19,33.09a9.28,9.28,0,0,0-5.4,4.08c.48,0,.72.24,1.08.12A19.79,19.79,0,0,0,92.19,33.09Zm16.8,1.8a42.39,42.39,0,0,0-12.6,5.52c-.48.24-.72.72-1.2,1.2,3.6,1.08,6.84,2.16,10.44,3.24C107.07,41.61,107.67,38.49,109,34.89Zm20.16,25.32a6.16,6.16,0,0,0-4.32.84,12.07,12.07,0,0,1-5.64,1.68c-1.2.12-2.4.48-3.6.72s-2.52.6-3.72.84l-1.08.36c-1.56.6-1.8,1.8-2.16,3-1.68,4.92-3.36,10-4.92,14.87-1.08,2.89-1.68,5.65-2.52,8.76a10.23,10.23,0,0,0,2.28-.48,110.6,110.6,0,0,0,18.24-8.63c4.92-3,9.72-6.13,13.92-10.44a12.84,12.84,0,0,0,2.88-4.44c.84-2.88.6-4-1.92-4.8A58.7,58.7,0,0,0,129.15,60.21Zm-15.12-8a15.27,15.27,0,0,0,2.52-.84c8.88-3.6,17.64-7.08,26.16-11.88a37.36,37.36,0,0,0,8.64-6.36c1.08-1.2,2-2.4,1.92-3.6-.24-1,0-1.8.72-3.24-.84.48-1.2.6-1.32.84-.84,1.08-1.32.84-1.8.24a13.46,13.46,0,0,1,.6-1.56c-2.52,1.56-2.52,2.16-2.64-.36a14.18,14.18,0,0,0-3.72,1,6.17,6.17,0,0,1-5,.12,11,11,0,0,1-1.2,1.56,7.18,7.18,0,0,1-.84-.72c-3,.72-5.52,1.44-8.16,1.92-2.4.36-4.68,0-7.08,2-.12.12-.24.24-.36.24-1.44,3.48-3,6.84-4.32,10.2S115.47,48.45,114,52.17Zm22.32,21.24c-6.24,6.47-13.8,10.8-21.48,15a.44.44,0,0,0,.12.36c.24,0,.48.12.72,0,3.84-2.16,7.8-4.08,11.52-6.35a34,34,0,0,0,9-7.57C136.59,74.37,137.19,73.89,136.35,73.41ZM119.79,40.05c.12-.6.24-1.08.36-1.68,0,.6-.12,1.08-.12,1.68Zm.48-1.68h0Zm1-1.44a5,5,0,0,0-1,1.44,13.46,13.46,0,0,0,.6-1.56A.44.44,0,0,0,121.23,36.93Zm3.36,14a11.1,11.1,0,0,0,1.2-.6C125.31,50.37,125,50.25,124.59,51Zm1.32-.6c.72-.36,1.44-.72,2.28-1.08C126.87,49.05,126.63,49.17,125.91,50.37Zm14.64,27.84c-1,1-1.92,1.92-2.88,2.75l-3.24,2.53a32.23,32.23,0,0,0-3.24,2.39c-1,.72-2.28,1-3.24,2.16,3.24-1,10.2-6.24,13-9.47Zm10.92-41.16a12.28,12.28,0,0,0,3-3.12c-.36-.72-.84-.6-1.44-.12-1.32,1-2.4,2-3.6,3-1.44,1.08-2.64,2.16-4.08,3.12-2.52,1.56-5,3-7.68,4.32s-5,2.4-7.56,3.6a11.46,11.46,0,0,0-1.92,1.44c.12,0,.24.24.48.12,1.68-.84,3.36-.72,4.92-2.28.12-.24.72-.36,1-.48,1.56-.72,3.36-1.44,5-2.28A58.76,58.76,0,0,0,151.47,37.05ZM130.35,89.13a.12.12,0,0,0,.12.12,4.55,4.55,0,0,0-.84.59c0-.12,0-.12-.12-.24C129.75,89.48,130.11,89.25,130.35,89.13Zm1.2-35.4a4.72,4.72,0,0,0,.72-.24c-.24-.12-.36-.36-.48-.36s-.24.12-.36.24S131.43,53.73,131.55,53.73Zm4.68,24.48c-.6.59-1.32,1.2-2,1.79-.48.6-1.8.49-1.56,1.8a38,38,0,0,0,7.8-7,3.19,3.19,0,0,0-2.28,1.69A24,24,0,0,1,136.23,78.21Zm-3-25c.12-.12.48-.24.6-.36a.91.91,0,0,0-.24-.48c-.12.12-.48.24-.48.36S133.11,53.13,133.23,53.25ZM134.55,56a.42.42,0,0,0-.24.12c0,.24.12.48.12.72a2.62,2.62,0,0,0,.6-.36C134.79,56.37,134.67,56.13,134.55,56Zm2.76,28.07a.41.41,0,0,0,.24.13c-.36.23-.6.47-1,.71.12-.12,0-.12,0-.24A1.84,1.84,0,0,1,137.31,84.08Zm3.24-2.75v.24c-.12.11-.24.23-.36.23v-.23C140.31,81.57,140.43,81.45,140.55,81.33Zm0-59.28.24.24a5.43,5.43,0,0,0,1.2-.6c-.48-.12-.72-.36-.84-.24S140.67,21.81,140.55,22.05Zm6.72,24c-1,.48-2.16.24-2.88,1.8A5,5,0,0,0,147.27,46.05ZM157,34.77c-1.08.84-2,1.8-3.12,2.64a40.8,40.8,0,0,1-3.6,2.76c-2.16,1.68-2.16,1.68-2.88,3,2.52-1.8,4.8-3.24,7.08-4.92C155.55,37.41,156.87,36.33,157,34.77Zm-8.64-11.52c0,.12.24.24.24.48.12-.12.48-.36.48-.48s-.12-.24-.24-.36C148.71,23,148.35,23.13,148.35,23.25Zm6.48,9.36c.48,0,.84-.12,1.44-.12a8.07,8.07,0,0,0-.84-1.32C155.19,31.77,155.07,32.13,154.83,32.61Zm3.6,1c-1-.36-1,.6-1.2,1.08C157.71,34.41,158.31,34.41,158.43,33.57Zm1.8,3.36c0-.48-.12-1-.12-1.8-.6.72-1.08,1.2-1.56,1.8Z"/><path d="M197.55,75.21c0-.13.36-.25.48-.37-1.8,4-12,15.84-14,16.56a5.28,5.28,0,0,1-.72,1.44c-2.4,1.92-4.32,4.44-7,5.76a17.5,17.5,0,0,1-10.8,4.92l-3.84.36c-5,.6-8.16-1.68-10.08-5.52C150,95.12,150,91,150.63,87c1.2-7.79,4.44-15.47,9-22.91a14.88,14.88,0,0,0,2.52-7.2c0-6.84,2.52-13.8,5.88-20.76a32.18,32.18,0,0,1,9-10.32,28.47,28.47,0,0,1,13.2-5.88,19.13,19.13,0,0,1,7,.6A20.79,20.79,0,0,1,207.87,26c1,1,1.92,1.92,1.8,3.48a6.88,6.88,0,0,0-.84.48c.12.12.12.36.36.48-.24-.12-.24-.36-.36-.48a6.88,6.88,0,0,1,.84-.48c.12,0,.12,0,.12-.12v.12c.12.12.24.36.36.48a3.59,3.59,0,0,1-1,.48v.12l-.12-.12a5.46,5.46,0,0,1,.6,2.4c0,.36.72.6,1.2,1a9,9,0,0,0-1.08,3c-.12,1,1.32.72,1.68,1.68h-2.16c.36.24.72.48.6.72-.48,1,.6,1.56.12,2.64-.48.84.36,1,1.44.36-.36,1.56-.36,2.88-.72,4.08a102.74,102.74,0,0,1-4.32,11.52,125.47,125.47,0,0,1-7.56,13.56c-2.64,4.2-5.64,8.16-8.52,12.23a9.73,9.73,0,0,1-.6,1c1.32-.6,1.92-1.8,2.76-2.76C194.19,79.65,195.87,77.37,197.55,75.21Zm-34.92-11c0-.24-.12-.36-.24-.72a11.54,11.54,0,0,0-3.12,6.12A36.6,36.6,0,0,0,162.63,64.17Zm16.44,15.48a130,130,0,0,0,12-19.8,92,92,0,0,0,4.08-9.36,25.13,25.13,0,0,0,1.56-4.2,52.59,52.59,0,0,0,1.2-10.44,12.79,12.79,0,0,0-1.44-5.28c-.84-1.44-1.92-1.56-3.84-.48a4,4,0,0,1-.72.36c-1.8.6-3.6,1.32-5.64,2a3.75,3.75,0,0,1,1.2.6c-1.44,1.32-2.88,2.52-4.08,3.72-.12,0-.12-.12-.24-.12.24-.48.48-.84.84-1.56-3.6,2.64-7.68,8.4-8,12.72.24-.12.6-.24.84-.36-.36,1.2-.24,1.08-1.32,1.92-.36.24-.48.72-.72,1.2.36-.12.6-.12,1.08-.24-.6,1.08-.24,2.28-1.8,2.76a13.22,13.22,0,0,1-.24,2.16c-.84,2-.36,3.84-.36,5.76-.12,2.28.24,4.56,1.68,6.12a25.32,25.32,0,0,0,2.76,2.28c.84.6,1.68,1,1.8,2.63a2,2,0,0,0-1,.37,10.39,10.39,0,0,0-.24,1.2c-.84-.12-1.8-.12-2.64-.24-.36,0-.72-.24-1.08,0a3.15,3.15,0,0,1-3.72-.24,39.25,39.25,0,0,1-3.72-2c-.6,1.32-1.2,2.4-1.8,3.48.12-1.32,1.2-2.53,1.32-4.08-.36.36-.72.47-.72.6a80.32,80.32,0,0,0-3,7.79c-.72,2.53-1,5-1.56,7.56a14.32,14.32,0,0,0-.24,6.36,5.73,5.73,0,0,0,1.2,3.36,3,3,0,0,0,1.08-.48c1.56-1.2,3.12-2.28,4.56-3.6A77.18,77.18,0,0,0,179.07,79.65ZM163.83,67.53a.44.44,0,0,1-.36-.12C162.75,69,162,70.53,161.19,72a.47.47,0,0,0,.36.11C162.39,70.53,163.11,69.08,163.83,67.53Zm-.72,13.68h.12c-.12.24-.12.47-.24.71h-.24Zm.6-6.84c.6-1.45,1.32-2.88,2-4.44h-.36c-.72,1.44-1.44,3-2,4.44Zm1,1.67H165c-.36,1.21-.84,2.29-1.2,3.49-.12,0-.12-.12-.24-.12C164,78.33,164.31,77.13,164.67,76Zm5.64-37.79a49.69,49.69,0,0,0,6.48-7.8C173.31,32.13,171.87,35.37,170.31,38.25Zm3,2.52a14.43,14.43,0,0,0,3.12-4.8C175.11,37.53,173.55,39,173.31,40.77Zm19.08,26.4s.12-.24,0-.24c-.24-.6.12-1,.6-1.44a3.72,3.72,0,0,0,.72-1.56,14.08,14.08,0,0,0,.6-3.24c-1,0-1,0-1.32.72-2.16,3.72-4.44,7.44-6.72,11.16a1.3,1.3,0,0,0-.36.84,4.47,4.47,0,0,1-1.8,3c-.24.35-.48.84-.72,1.2-2.28,3.72-5,7.19-7.68,10.67.36-.24.84-.36,1-.72a73.7,73.7,0,0,0,5-5.64c1.92-2.27,3.48-4.92,5.4-7.19C189.27,72.33,190.23,69.57,192.39,67.17ZM176.31,42.93c1.68-2.4,3.12-4.68,4.68-7.08-.12,0-.24-.12-.48-.12C178.71,37.89,176.91,40.17,176.31,42.93ZM178,44.61c-.12.48-.36,1.08-.48,1.56C176.79,45.57,177.51,45.09,178,44.61Zm4.08-6.84c.12,0,.12.12.24.24-1,1.2-1.8,2.52-2.76,3.72-.12,0-.24-.12-.36-.12C180.15,40.29,181.11,39,182.07,37.77Zm6.12,48.71a.42.42,0,0,1,.12-.35A.42.42,0,0,0,188.19,86.48Zm.12-.35c0-.13.12-.13.12-.25C188.43,86,188.31,86,188.31,86.13Zm.12-.25c0-.12,0-.12.12-.12C188.43,85.76,188.43,85.76,188.43,85.88Zm.24-.24a.12.12,0,0,1,.12-.12A.12.12,0,0,0,188.67,85.64Zm.12-.23.24-.12Zm.24-.12a1.17,1.17,0,0,1,.6-.49A1.17,1.17,0,0,0,189,85.29Zm1.32-9.48a86.92,86.92,0,0,0,10.44-17.88c-.12-.12-.36-.12-.48-.24a5.22,5.22,0,0,1-.72.84c-1.56,3.72-4.2,7.2-6.48,10.68-1.2,1.79-2.16,3.6-3.12,5.28C189.51,75.33,189.75,75.57,190.35,75.81Zm9.48-10.2a2.19,2.19,0,0,0-.6,1.32c-.24.24-.24.6-.36.84a28.71,28.71,0,0,1-1.56,2.52c-.48.71-1,1.56-1.44,2.28-.12.12-.48.24-.48.35a11.89,11.89,0,0,1-3.84,5.53c-.24.23,0,.59-.24,1.08a4.32,4.32,0,0,0,2.16-1.92c4.44-6.12,8.64-12.48,11.4-19.44-.36.24-.84.36-.72.36-.12,1.44-2.28,2.4-2,4a.23.23,0,0,1-.12.36C200.67,63.45,200.67,64.89,199.83,65.61Zm-4.08-8.4c.48-1.2.84-2.16,1.2-3C196.11,55.05,195.39,55.89,195.75,57.21Zm4.56-8.64a1.42,1.42,0,0,0-1.8,0C198.87,49.41,199.71,48.57,200.31,48.57Zm-.72,23.51c.24,0,.36.13.48.13A13.18,13.18,0,0,0,199,73.89a.44.44,0,0,0-.36-.12A11.54,11.54,0,0,0,199.59,72.08Zm-.84-27.35c.12,1.08.12,1.92.24,2.52,1.92.6,1.68-1.68,2.76-2.16C201,45,200.07,44.85,198.75,44.73Zm.48,5.4c-.12.24-.36.36-.48.48.24.12.24.24.36.36.24-.24.36-.36.36-.48S199.35,50.25,199.23,50.13ZM202,68.61c.12,0,.24.12.36.12a22.51,22.51,0,0,0-1.44,2.16c-.12-.12-.24-.12-.36-.24C201,69.93,201.51,69.33,202,68.61Zm-.72-13.56c.12,0,.12.12.24.24.12-.24.36-.36.6-.6a.42.42,0,0,0-.24-.12C201.75,54.69,201.51,54.81,201.27,55.05Zm2.28,11c0,.12.12.36,0,.48s-.24.36-.36.6a.44.44,0,0,0-.36-.12,11.07,11.07,0,0,0,.6-1Zm.12-18.24a15.93,15.93,0,0,0,0,2.4c0-.12.12-.12.24-.12.24-.6.48-1.32.84-2A7.65,7.65,0,0,0,203.67,47.85Zm1.8,14.4h.36c-.48,1.08-1.08,2-1.56,3-.12,0-.12-.12-.24-.12Zm-.24-15.72c-.6-.48-.6-.48-1.08.24C204.51,46.65,204.87,46.65,205.23,46.53Zm.84-8.4a9.26,9.26,0,0,1-.24,1.8c-.36,1.08-.72,2.28-1.2,3.48a1.37,1.37,0,0,0,.36.72,4.24,4.24,0,0,0,1.68-.12,9.92,9.92,0,0,1-.84-1.56c2-1.68,1.32-3.24,1.32-4.8,0-.24-.36-.48-.6-.48C206,37.29,206.07,37.65,206.07,38.13Zm1.56,20.76a5,5,0,0,0-1,1.44h-.36c.24-.48.72-1.08,1-1.56A.44.44,0,0,1,207.63,58.89Zm0-9.36a.42.42,0,0,1,.12.24A.42.42,0,0,0,207.63,49.53Z"/><path d="M258.15,99.44a33.3,33.3,0,0,1-2.88,3,3.57,3.57,0,0,1-1.8.6,6.83,6.83,0,0,0-4.2,1.2,5,5,0,0,1-4.68.12c-3.48-1-4.2-3.72-4.68-6.84a64.75,64.75,0,0,1-.48-11.88V84.21c0-.13-.12-.13-.24-.25a2.26,2.26,0,0,0-.84.6c-2.64,2.65-5.16,5.4-7.68,8a17.2,17.2,0,0,1-8.4,4.92,44.17,44.17,0,0,0-4.44,1.32,8.57,8.57,0,0,1-4.92-.12c-3.72-1.08-5.16-3.84-5.64-7.32a47,47,0,0,1,.36-14.75c2.28-14.28,7.08-28.44,13.56-42.48a12.49,12.49,0,0,1,2.16-3.6c1.56-2.28,2.16-2.4,3.48-.6l1-1a2.85,2.85,0,0,1,1.44-.6c.24,0,.48.48.48.84s-.12.6-.12,1.2a25.14,25.14,0,0,0,1.68-2c1,.48,1.68,1.08,2.88,1.68a13.38,13.38,0,0,1-.36,1.56c-1.56,4.44-3,8.88-4.56,13.32a225.87,225.87,0,0,0-7.56,24.24,67.36,67.36,0,0,0-1.56,13.67,1.77,1.77,0,0,0,.24,1.08l.72-6.12a121.27,121.27,0,0,1,5.76-23.63c2.52-7.08,4.92-14.16,7.32-21.24a2,2,0,0,1,.84-1,6.77,6.77,0,0,0-.48,1.44c-2.76,8-5.52,16.08-8.16,24.12a119.55,119.55,0,0,0-4.8,21.72,41,41,0,0,0-.24,7.67c1.08-.36,1.44-1.2,2-1.92,3.12-4.08,6.48-8.28,9.36-12.47,5.16-7.56,10.08-15.12,14.88-22.8,2.64-4.2,4.92-8.76,7.32-13.08,2.28-3.84,4.32-7.8,6.36-11.64a5.91,5.91,0,0,1,3.6-3.36c-.24,1.32-.12,2.64-.72,3.84-1.32,3.12-2.88,6.24-4.44,9.36,0,.24-.12.6-.12,1,3.12-4.92,5.76-10,9.12-14.88.72.24,1.08.48,1.68.72a14.07,14.07,0,0,0-1.08,2.88c.12,0,.24.12.36.12a16,16,0,0,0,1.68-2.28,2,2,0,0,1,2-1.08c.72.12,1.2.48,1,1.44-.12.48-.12,1.08-.24,1.92.72-.72,1.56-1.32,2.16-1.92a7.47,7.47,0,0,1-.36,4.56c-2.16,4.32-4.2,8.64-6.24,13.08-2.64,5.88-5.4,11.76-8,17.64-2.64,6.36-5.28,12.72-6.48,19.08a50.27,50.27,0,0,0-1.32,11,8.93,8.93,0,0,0-.12,1.79c0,.6-.24,1.68.24,1.8,1.08.6.84,1.56.84,2.52.12.6.48,1.2.6,1.8s.6,1.08,1,1.68a7,7,0,0,0,1.32-.84c-.12.84-.24,1.44-.36,2.28a11.33,11.33,0,0,0,1.08-.36A.92.92,0,0,1,258.15,99.44ZM224.67,32.61c-.24.48-.6,1.08-.84,1.56s-.48,1.08-.84,1.68a9.14,9.14,0,0,0-1.56,3.72,3.12,3.12,0,0,0-1.2,2.4,27.49,27.49,0,0,1-.84,3.36c-.72,2.28-1.56,4.56-2.4,6.84a2,2,0,0,0-.36.72,8.08,8.08,0,0,0,.12-1.2c-1.44,5.4-3,11.16-4.56,16.92a4.82,4.82,0,0,0,1-1.92c1-2.88,1.68-5.64,2.52-8.4,1.8-5.88,3.84-11.76,6.24-17.64l3.24-6.84C225.39,33.09,225.63,32.61,224.67,32.61Zm-9.6,23.88h-.24c-.36,1.32-.72,2.64-1.08,3.84H214C214.35,59,214.71,57.81,215.07,56.49Zm12.6-20.64a1.73,1.73,0,0,0-.84.72c-4.68,12.6-9.72,25.2-11.28,36.72,1.56-5.4,3.24-11.76,5.28-18.24S225.39,42.21,227.67,35.85Zm-9.48,11.4c-.12.12-.12.36-.24.6h.12c.12-.24.12-.48.24-.72C218.19,47.13,218.19,47.13,218.19,47.25Zm1.08,28c2.64-13.8,8-27.72,12.6-41.52C226.59,47.49,221,61.29,219.27,75.21Zm0-31c.12,0,.12,0,.24.12a7.65,7.65,0,0,1,.24-.84h-.24C219.39,43.77,219.39,44,219.27,44.25ZM244.47,59c-2.16,3.48-4.2,7-6.36,10.32.12.12.24.24.36.24C240.87,66.21,243.75,63.09,244.47,59Zm8.28,6h-.48c-2.28,4.44-3,8.88-3.6,13.32C250.11,73.89,251.43,69.45,252.75,65Zm7.2-6.12c3-7,6.24-13.92,9.24-21h-.12c-.12.12-.24.24-.24.36-1.8,3.48-3.72,7-5.28,10.56-3.72,7.92-7.2,15.84-9.24,23.88-.72,2.64-1.2,5.15-1.68,7.68h.48A117,117,0,0,1,260,58.89Zm-5.76,1.68c0-.12-.12-.12-.24-.12a3,3,0,0,1-.48.84c.12.12.12.12.24.12C253.83,61.17,254.07,60.81,254.19,60.57Zm.12,32.51h-.48c0,.24-.12.48-.12.72.24,0,.36,0,.36.12A3.05,3.05,0,0,0,254.31,93.08ZM260.79,65A72.11,72.11,0,0,0,255,88.17a21.27,21.27,0,0,1-.24,2.75.44.44,0,0,0-.36.12,24.54,24.54,0,0,1,0-4.2c1-5.27,1.56-10.43,3.36-15.71a176.71,176.71,0,0,1,7.44-18.6c1.08-2.4,2.16-4.8,3.36-7.2a2.82,2.82,0,0,1,1-1.2,3.5,3.5,0,0,1-.24,1.08C266.43,51.81,263.55,58.41,260.79,65Zm-1.56-16.68h-.12a7.65,7.65,0,0,1-1,1.68.37.37,0,0,0,.24.12C258.63,49.53,259,48.93,259.23,48.33Zm10.92-13.68a11.19,11.19,0,0,0,2.76-4.08.72.72,0,0,1-.48-.12C271.71,31.89,271,33.21,270.15,34.65Zm0,7.32c.6-1.2,1.2-2.52,1.8-3.72C272.19,39.57,271.71,40.53,270.15,42Zm3.48-6.24c-.12.24-.36.36-.36.48s-.36-.12-.24-.24.12-.24.24-.36A1.21,1.21,0,0,0,273.63,35.73Zm.6-1.32H274c.12-.48.36-1.08.48-1.56A8.26,8.26,0,0,1,274.23,34.41Zm.24-1.56c.48-.84.84-1.68,1.44-2.64A3.48,3.48,0,0,1,274.47,32.85Zm2.88-6h-.12a7.65,7.65,0,0,0,.24-.84c.12,0,.24.12.36.12C277.59,26.37,277.59,26.61,277.35,26.85Z"/><path d="M367.46,26.85A2.39,2.39,0,0,1,366.14,29c-1,.48-2.28,1-2.88.72a2.88,2.88,0,0,0-2.64.24,4.33,4.33,0,0,1-2.28.6c-3.6-.24-7.32.36-11,.72-2.52.24-5.28.72-7.92.84-1.8.12-3.48,0-5.28.12a10.65,10.65,0,0,0-1.8.24c-.6.12-1.32.84-2,.12-.36-.48-1.56.6-1.8,1.56-.48,1.32-.84,2.64-1.32,4-2.28,6.48-4.32,13-6.83,19.56A215.7,215.7,0,0,0,312.86,83c-.72,2.64-1.43,5.28-2.15,8-.12-.36-.49-.72-.36-1.08a9.81,9.81,0,0,1,.47-2.52A238.72,238.72,0,0,1,322.1,49.65c1.8-4.44,3.24-8.88,4.68-13.32a2.35,2.35,0,0,0,.12-1.8,3.18,3.18,0,0,0-.6.72c-3.48,10.8-8.4,21.48-11.28,32.4-1.8,6.72-3.24,13.56-4.8,20.27A60.79,60.79,0,0,0,308.9,94a22,22,0,0,0-.47,4.68c.24,1.68-.84,3-1.33,4.44a.86.86,0,0,1-.47.12c-.12-.84-.24-1.68-.36-2.76a7.45,7.45,0,0,0-1,1.44c-1.09.36-2.52,1-2.88-.48-1.44,1.08-1,2.88-2.64,3.72-1.44-.12-1.8-1.08-2.4-2.28a7.28,7.28,0,0,1-1.2.84,3.49,3.49,0,0,1-1.44-3,51.31,51.31,0,0,1,0-7.44c.48-9.11,2.4-18.48,4.08-27.83a118,118,0,0,1,9-27.84c.24-.6.49-1.32.73-2a4,4,0,0,0-3.12.12,11.6,11.6,0,0,1-3.48.48c-3.6.36-7.2.84-10.8,1.08-2.52.12-4.92.12-7.32.24a3.32,3.32,0,0,1-1.08-.12c-1.2-.24-2.52-.48-2.4-1.92-.84-.36-1.8-.36-2.28-.84-1.2-1.08-1-2.64,0-4.2a11.6,11.6,0,0,1,7.32-5c4-.84,7.92-1.68,11.76-2.28,3.48-.48,7-.84,10.56-1.08s7.43-.36,11.15-.48c1.08-.12,1.56.24,1.68,1.32.24-.36.24-.6.6-1.2,2.4-.12,4.68-.24,7.2-.48,2.28-.12,4.56-.12,6.84-.24a152,152,0,0,1,22.2.12,27.33,27.33,0,0,1,9.84,2.76,5.77,5.77,0,0,1,1.32,1.08A10.73,10.73,0,0,0,367.46,26.85ZM299.07,86.48a1,1,0,0,1,0-.84,2,2,0,0,1-.6.24,2.11,2.11,0,0,1,.36.72C299,86.6,299,86.48,299.07,86.48ZM304,88l-.11-.12c-.12,0-.36.25-.48.36l.24.24A.61.61,0,0,0,304,88Zm-.11-1.44c1.19-1.31,1.19-1.43.35-3.35A16.67,16.67,0,0,0,303.87,86.6Zm1.92-10.19H306c.12-.49.49-1,.49-1.33,0-.12-.12-.12-.24-.12C306.14,75.45,305.9,75.92,305.79,76.41Zm7.79-41.76c-2.64,5.4-4.19,10.56-6,15.72,1.92-4.56,3.84-9.24,6-13.92C313.7,35.85,314.06,35.37,313.58,34.65Zm10.32,2C317.66,52.41,311.66,68.13,309.14,84c.6-2.75,1.33-5.63,2.17-8.51,3-11.28,7.08-22.68,11-34C322.94,39.93,323.42,38.25,323.9,36.69ZM309.51,62.13c1.08-2.76,2-5.64,2.88-8.4.59-1.8,1.43-3.6,2.16-5.4a3.22,3.22,0,0,0-.85,1.08,15.2,15.2,0,0,0-1,2.4C311.78,55.17,310.59,58.65,309.51,62.13ZM312,23.61c-.12-.24-.24-.48-.36-.36a2.67,2.67,0,0,1-.6.48l.25.24C311.55,24,311.78,23.73,312,23.61Zm7.2,12a67.53,67.53,0,0,0-4.56,11.64,3.24,3.24,0,0,0-.11,1Q316.88,41.91,319.22,35.61Z"/></svg>