<svg id="Layer_1" data-name="Layer 1" xmlns="http://www.w3.org/2000/svg" viewBox="0 0 309.85 131.3"><defs><style>.cls-1{fill:#fff;}</style></defs><title>Artboard 42</title><path class="cls-1" d="M15.12,130.55a5.8,5.8,0,0,1-3-1.59c-.4-.37-.82-.72-1.24-1a7.88,7.88,0,0,1-2.08-2.37,14.3,14.3,0,0,1-1.88-6.87,18,18,0,0,0-3.66-10.22,9.11,9.11,0,0,1-.82-1.26l-.25-.5q-.34-.75-.75-1.44a10,10,0,0,1-.7-1.44c-1.28-3.46-.77-7.29,1.24-9.08l.35-.32.22-.23a14.85,14.85,0,0,1,4.05-3.26l.19-.1c2-1.06,4.11-2.06,6.32-3a8.41,8.41,0,0,0,4.46-5c7-17.9,14.22-35.42,22.22-53.49l0-.09c2.59-5.74,5.24-11.32,8.12-17l.06-.12a65.67,65.67,0,0,1,4.14-7c.1-.15.2-.32.3-.48A8.51,8.51,0,0,1,57.54.34l.14,0A4.48,4.48,0,0,1,60.62.2a9.46,9.46,0,0,0,2.51.4,6.65,6.65,0,0,1,3.13,1,11.61,11.61,0,0,0,1.57.8,11.39,11.39,0,0,1,2.8,1.78,12.3,12.3,0,0,0,2.09,1.37,6.19,6.19,0,0,1,1.15.8A10.92,10.92,0,0,0,81,9.1a10.29,10.29,0,0,0,5.67-1.76,9,9,0,0,1,2.77-1.22A4.87,4.87,0,0,1,90.61,6a5.19,5.19,0,0,1,2.47.61,10.16,10.16,0,0,0,1.36.59,6.2,6.2,0,0,1,1.16.56l.17.11q.24.17.48.36A12.87,12.87,0,0,0,97.32,9a7.27,7.27,0,0,1,1.85,1.75,16.56,16.56,0,0,1,3.19,11.42c-.62,8.25,3.28,15.89,9.38,18.46.52.22,1.05.47,1.58.74a21.61,21.61,0,0,1,5.09,3.85A12.33,12.33,0,0,0,126.72,49a12.17,12.17,0,0,0,7.48-2.27c1.26-.87,2.39-1.59,3.44-2.19l.42-.26a9.26,9.26,0,0,1,5.19-1.57,6.74,6.74,0,0,1,1.35.17,13.08,13.08,0,0,0,2.24.29,12.65,12.65,0,0,0,3.6-.41,30.64,30.64,0,0,1,8.8-1.06,24,24,0,0,1,16.5,7.2l.19.2a13.51,13.51,0,0,0,9.23,4.24,14.21,14.21,0,0,0,3.65-.32,9,9,0,0,1,2.3-.2,8.17,8.17,0,0,1,2.77.59,13.29,13.29,0,0,0,2.33.69,8.06,8.06,0,0,1,2.23.81,13.81,13.81,0,0,0,6,1.69,17.76,17.76,0,0,0,13.64-6.09l.5-.53c.19-.21.38-.39.57-.57.51-.48,1.08-1,1.73-1.47a22.34,22.34,0,0,0,5.28-6,17.58,17.58,0,0,1,2.73-3.44l.23-.22c3.65-3.67,7.56-5.6,11.61-5.68l7.74-.29c6-.23,12.23-3.69,16.61-9.37,1.76-2.27,3.54-4.59,5.37-7l.17-.22c.14-.19.3-.39.47-.58a64.23,64.23,0,0,1,5.77-5.92c1-.91,2.5-2.25,4.3-3.6l.42-.3c3.28-2.26,6.22-3.38,9-3.4a9.54,9.54,0,0,1,3.95.75,16,16,0,0,0,2.76.93,8.32,8.32,0,0,1,3.26,1.54,17,17,0,0,0,1.42,1A7.52,7.52,0,0,1,305.16,10c.16.41.3.82.45,1.25l.26.71a16.57,16.57,0,0,0,.83,1.87,10.58,10.58,0,0,1-.06,9c-2.95,6.91-2.66,14,.74,19a15,15,0,0,1,1.7,3.58l.22.58a7.84,7.84,0,0,1,.43,1.62c.59,3.74-1,8-4.17,11.42-3.5,3.75-8.54,6.11-12.85,6.08h-.26c-1.57,0-3.1,0-4.59,0-7.09-.13-14.25,3.7-18.59,9.84l-.29.38a20.67,20.67,0,0,0-1.2,1.74c-.27.43-.54.88-.8,1.33l-.13.22a11.29,11.29,0,0,1-.79,1.16A23.42,23.42,0,0,0,264.54,82c-1.65,2.76-3.3,5.51-4.93,8.18a21.42,21.42,0,0,0-1.11,2,10.49,10.49,0,0,1-2,2.88,20.39,20.39,0,0,0-3.66,5.23c-.64,1.32-1.26,2.64-1.88,4-.83,1.76-1.65,3.5-2.5,5.23-.12.24-.23.47-.34.72-.21.47-.42,1-.64,1.53a17,17,0,0,0-1.26,6.56,10.56,10.56,0,0,1-6.67,9.69,8.58,8.58,0,0,1-4.25.66,16.54,16.54,0,0,0-4.55.17,10.22,10.22,0,0,1-2.9.1,9.33,9.33,0,0,1-3.41-1.09,15.12,15.12,0,0,0-5.57-1.76,15.63,15.63,0,0,0-7.73,1.08,8.72,8.72,0,0,1-4.3.57,9.36,9.36,0,0,1-1.84-.41,14.28,14.28,0,0,0-2.74-.61,10.32,10.32,0,0,1-6.56-3.6,14.24,14.24,0,0,0-9.28-5,13.43,13.43,0,0,0-2.69,0,14.41,14.41,0,0,1-5.85-.74l-.34-.11c-.82-.25-1.71-.45-3.27-.79l-.37-.08a13.42,13.42,0,0,1-8-5.48l-.28-.4a13.73,13.73,0,0,0-9.79-5.87,12.39,12.39,0,0,0-3.49.14l-.66.14a12.78,12.78,0,0,0-6.56,3.68,10.94,10.94,0,0,1-2.24,1.74,6.15,6.15,0,0,1-1.46.65,12.07,12.07,0,0,0-2.64,1.13,5.69,5.69,0,0,1-.56.3l-.15.08A8.49,8.49,0,0,1,137,113l-.62.22a12.25,12.25,0,0,0-1.44.62,9.88,9.88,0,0,1-4.77,1h-.65a11.44,11.44,0,0,0-1.55,0l-.22,0a17.87,17.87,0,0,1-3.36,0l-.38,0a17.42,17.42,0,0,1-9.28-4.14q-.17-.15-.33-.33l-.66-.69a12.6,12.6,0,0,0-7.85-4.13,10.12,10.12,0,0,0-6.21,1.31l-.93.53-.2.11a13.76,13.76,0,0,1-8.67,1.69c-1.88-.21-3.82-.43-5.77-.81-.52-.1-1.08-.23-1.6-.37a8.58,8.58,0,0,0-1.56-.3,9.08,9.08,0,0,0-7.8,2.91A4.38,4.38,0,0,1,69.31,112l-.5-.06a9.15,9.15,0,0,0-2.28,0l-.53,0c-5,.3-8.53,4.71-8.66,10.61,0,0,0,.52,0,.66a9.43,9.43,0,0,1-2,6.16,3.89,3.89,0,0,1-3.15,1.36,7.91,7.91,0,0,0-2.8.38,4.05,4.05,0,0,1-1.84.15,5.37,5.37,0,0,1-2.18-.87l-.19-.13c-.32-.21-.58-.39-.83-.59s-.67-.5-1-.73A7.51,7.51,0,0,1,41,126.5c-2.19-3.53-5.42-5.85-8.63-6.28a6.2,6.2,0,0,0-1-.07c-3.48-.05-6.27,2.24-7.33,6a8.43,8.43,0,0,1-1.23,2.56,3.37,3.37,0,0,1-3.29,1.54,7,7,0,0,0-2.86.23A3.55,3.55,0,0,1,15.12,130.55Z"/><path d="M60.4,95.2c-.7.08-1.3-.13-1.77,0a8.84,8.84,0,0,0-2,0c-2.08.23-2.3.5-2.72,3.06-.57,5.81-1.34,11.63-1.89,17.23-.19,2.16.06,4.36,0,6.38a3.7,3.7,0,0,1-.72,2.58,16.48,16.48,0,0,0-3.15-1.22c-.19.37-.69,1.1-1.07,1.84a4.28,4.28,0,0,1-.69-.49c-.48-.59-.43-1.52-1.37-1a4.22,4.22,0,0,1-.64-1.28c-.21-2.83-.53-5.55-.52-8.4.19-4.76.73-9.56,1.15-14.59.07-.56,0-1.42.06-2.27A46.44,46.44,0,0,0,39,98.05c-3,.66-5.92,1.47-8.88,2.26a8.81,8.81,0,0,0-3.51,1.4l0,.28-.08.26.08-.26c-.29.24-.62.2-.8.45-2.11,5.31-4.07,10.51-6,15.61a6.21,6.21,0,0,0-.35,3.3,3.68,3.68,0,0,1-.7,2.83c-.38-1.58-2.43.66-2.63-2-.39,1-.55,1.32-.83,1.53-.15.36-.69.91-.89.88s-.58-.71-.81-1a3.11,3.11,0,0,1-.2-.91,6.38,6.38,0,0,1-1.07.23,7.57,7.57,0,0,1-.42-5.26A64.42,64.42,0,0,1,14.14,109c.29-1,.56-2.17.87-3.07a32.68,32.68,0,0,1-4.33.41c-.49.08-.95-.37-1.58-.58a12.34,12.34,0,0,0-2-.76c-1.12-.14-1.25-.42-.74-1.94-.53-.19-1.24-.27-1.39-.69a1.75,1.75,0,0,1,.44-2.07,14.79,14.79,0,0,1,3.88-3.2,70.61,70.61,0,0,1,8.91-3.85,3.94,3.94,0,0,0,2.59-2.67c7.11-17.9,15-36.62,24.05-56.42,2.51-5.4,5.2-10.9,8.19-16.7a63.43,63.43,0,0,1,4.07-6.66c.85-1.46,1-1.46,2.54-2a4.06,4.06,0,0,0,.45,1.1c.28.36.3.91.58,1.09,3.22-2.2,3.22-2.2,3.88.74C66,10.23,66,10.23,69.3,13.18c-.61,1.64-1.21,3.46-1.93,5.64,1.68-1.44,1.59-3.81,3.3-5.09.29.74.85,1.29.74,2a11.38,11.38,0,0,1-1.66,6.16,2.69,2.69,0,0,0-.6,1.79,3.35,3.35,0,0,1-1.46,3.36,3.84,3.84,0,0,1-.25,3.7,12.23,12.23,0,0,0-2.1,6.2c-.1.69-.45,1.54-.78,2.9a6,6,0,0,0-1.32-.9c-.07,1.36-.15,2.38-.23,3.39.4.36.69,1.22,1.36,1.92.68-2,1.51-3.69,2.07-5.72C66.19,42,61,61.9,59.8,64.39c-.23-1.93.55-3.81,1.07-5.72.52-2.09,1.05-4.19,1.45-6.47a57,57,0,0,0,1.48-6.27c-1.39,3-1.1,6.45-3.77,8.29a25.81,25.81,0,0,1-.54,6.63,29,29,0,0,0-1.41,6,10.66,10.66,0,0,0-.56,3.11c-.19,1.08-.85,2.28-1,3.35-.34,2.45-.46,4.74-.81,7-.25,1.8-.76,3.26-1,4.89,1.32-1.69,1-3.68,1.47-5.46s1-3.75,1.47-6a2.91,2.91,0,0,1,.14,2.63c-.56,3-1,6-1.65,9C56,86,56,86.49,56,87.08c1.6,1.19,3.32,2.39,4.93,3.58a3.07,3.07,0,0,1,1,2.92C61.79,94.75,61.22,95.14,60.4,95.2ZM17.78,105.84c-1.86,1.77-4.38,10-4.13,12.93C15.16,114.46,16.51,110.19,17.78,105.84Zm-.59,9.54c0-.14-.12-.15-.32-.18-.28,1.13-.55,2.39-.81,3.64l.41,0A32.33,32.33,0,0,0,17.19,115.38Zm4-4.74c-1.3,2.34-2.74,7-2.6,9.18C19.47,116.71,20.38,113.7,21.19,110.64ZM19.93,120c.41-1.88.53-3.55,1.84-4.81C21.2,116.68,20.56,118.28,19.93,120ZM23,111.13c-.47,1.53-.86,2.66-1.23,4.06C21.5,113.58,22.31,112.5,23,111.13Zm-.28-3.77c-.11,0-.11,0-.23-.16-.07.26-.36.49-.46.62.12.14.12.14.34.17A6.93,6.93,0,0,1,22.72,107.36Zm.44,3.26c-.1.12-.08.25-.19.24S23.06,110.74,23.16,110.62Zm-.19.24,0,.27Zm1.31-2.51a20.74,20.74,0,0,0-1.12,2.27,17.88,17.88,0,0,1,.69-2.45A.75.75,0,0,1,24.28,108.35ZM58.72,14.42C53.05,20.1,24.21,86.07,22.82,91.6c.66.21.82-.34,1.18-1,.8-1.76,1.47-3.84,2.3-5.48,6.2-13.91,12.43-28.49,19.5-43.9,3.58-8,8-15.48,12-23.93A3.35,3.35,0,0,0,58.72,14.42Zm-33.25,90c.36-.64.71-1.42,1.06-2.2-.24.79-.37,1.6-.6,2.52C25.71,104.75,25.61,104.73,25.47,104.45Zm4.43-14.7a25.94,25.94,0,0,0,3.4-7.93C32.07,83.18,29.78,88.45,29.9,89.75Zm21-29.57A17.47,17.47,0,0,1,51,57.47c.24-2.08.75-3.84,1.1-6.1a3.85,3.85,0,0,0,.05-1.3l-.37,0c-3.39,6.31-6.55,12.79-9.65,19-.12,0-.25-.18-.48-.19,2.46-4.95,5-9.84,7.19-14.85-6.57,12.11-12.35,24-17.6,35.91,5.15-.65,9.93-1.36,14.88-2.22a9.8,9.8,0,0,1,.46-1.72c1-7.53,2.24-15.38,3.42-23.12A4.64,4.64,0,0,1,50.9,60.18ZM34.31,80.59A15,15,0,0,0,35.22,78C34.83,78.71,34,79.23,34.31,80.59Zm4.24-5.16c.11,0,.12.16.24.17a14.58,14.58,0,0,0-.68,1.59c-.11,0-.12-.16-.24-.17C38.17,76.45,38.35,75.86,38.55,75.43Zm.14-4.07c.59-1.33,1-2.37,1.45-3.72C38.84,68.78,38.52,69.21,38.69,71.36Zm2.15-.61.24,0c-.19.6-.4.89-.5,1.18a.26.26,0,0,1-.22.14v-.15A5,5,0,0,1,40.84,70.75Zm.42-5.35c-1.12.7-1.42,1.29-1.13,2.08A7.38,7.38,0,0,0,41.26,65.4Zm5.39,38.27a3.48,3.48,0,0,1,.12-1.54.93.93,0,0,1-.56.08,3.78,3.78,0,0,0,.11,1.56C46.54,103.66,46.54,103.66,46.65,103.67Zm.71-4.45c0-.58.13-1.42.09-2a1.56,1.56,0,0,0-.43,2.1C47.14,99.33,47.24,99.2,47.36,99.22Zm1.9,9.78a5.82,5.82,0,0,1,.13-1.38c-.11,0-.11,0-.21.12A6.1,6.1,0,0,1,49,109Zm1.07-7.76a19.75,19.75,0,0,1,.29-2.54c0-1.43.14-1.42-.47-1.91-.13,1.42-.37,3-.62,4.37Zm-1-21h-.12c-.06.9-.23,1.78-.3,2.52H49C49.07,82,49.25,81.11,49.31,80.21ZM51,75.79a15.33,15.33,0,0,1-1.17-1.61c-.15,1.36-.42,2.56-.56,4.06.12,0,.23,0,.24.17C50,77.54,50.61,76.68,51,75.79ZM59,38.13a13.29,13.29,0,0,0-3.42,6.79c-.31,1.32-.23,2.65-.79,3.79-.89,1.77-.69,3.25-1.08,5-.27,1.61-1,3.19-1.31,4.78-.65,5.37-1.65,10.48-2.52,15.67a3.56,3.56,0,0,1,1.3-.06c.08-.61.51-1.35.38-1.67-.76-2.53.29-5,1.24-7.24a3.22,3.22,0,0,0,.6-2,13.6,13.6,0,0,1,.94-4.89A2.73,2.73,0,0,0,54.44,56,3,3,0,0,1,55,53.48c1-1.75,1.33-2.89.87-4.56-.14-.17.09-.49.32-1,.42-1.48,1-3,1.38-4.62A51.71,51.71,0,0,0,59,38.13ZM52.38,103c.17-1,.23-1.83.3-2.53A1.6,1.6,0,0,0,52.38,103Zm-.61-17.22c.12,0,.34-.12.46-.11a2.12,2.12,0,0,0,0-1.19l-.47,0A2.77,2.77,0,0,1,51.77,85.81Zm.84,11.66c0,.44-.07.71-.06,1l.47,0a2.89,2.89,0,0,1-.07-1ZM63.72,35.36a5.51,5.51,0,0,1,1.56.22,8.71,8.71,0,0,1-.63-2.8A39.17,39.17,0,0,1,65.84,27a22.31,22.31,0,0,1,1-3.36,4,4,0,0,0-1.73,2.64c-.65,3.34-2.45,6.61-3.2,10s-1.72,6.75-2.56,10.25c-.4,2-.79,4.11-1.21,5.74-.74,2.41-1.36,4.82-2,7-.17,1.44-1.29,3.28-1.34,4.55.23,1.92-.41,3.45-.56,5-.6,4.16-1.2,8.11-1.78,12.31-.08.6-.17,1-.26,1.48C55.45,67.59,58.66,51.69,63.72,35.36ZM59.37,65.8c.32,1.28-.17,3.78-1.33,7.13A17.75,17.75,0,0,1,59.37,65.8ZM58,36.57c0,.17.13.17.13.17a26.3,26.3,0,0,0,1.16-2.37c-.13,0,0-.17-.14-.17a.31.31,0,0,0-.25.16C58.58,35.21,58.24,35.89,58,36.57ZM65.2,48.84l.39,0c-.34,1.15-.56,2-.89,3l-.26,0C64.78,50.82,64.86,49.83,65.2,48.84Zm1.17-2.63-.39,0c.11-.5.47-1.16.58-1.67l.38,0C66.71,45,66.6,45.71,66.37,46.21Zm1-10.05a163.13,163.13,0,0,1,4.76-18.57A96.29,96.29,0,0,1,67.39,36.16Z"/><path d="M103,94c4.14-3.88,7.29-8.9,10.37-14a14.85,14.85,0,0,1-1,2.21,51.66,51.66,0,0,1-9.65,13,25.64,25.64,0,0,1-7.13,5.61,8.87,8.87,0,0,1-5.84,1.21c-1.76-.18-3.64-.38-5.39-.71a15.46,15.46,0,0,1-8.77-4.78,16.61,16.61,0,0,0-2-2c-.32,1.16-1.51,2.09-.73,3.36v.3a47.6,47.6,0,0,1-2.34,5,13.53,13.53,0,0,0,.63-2.12c0-.15,0-.15-.12-.16q-1,2.08-2,4.16l-.12,0a9.05,9.05,0,0,0,.41-1.69c-.82.49-1.63.84-2.56,1.31a18.94,18.94,0,0,1,.6-2.54.15.15,0,0,0-.13-.16c-.21.41-.43,1-.65,1.38a11.3,11.3,0,0,1-.88,1.35c-.23.26-.8.49-.93.33a1,1,0,0,1-.28-1,17.07,17.07,0,0,1,.47-2.55c-1,.32-.87,1.64-1.55,2.14-.71-.22-.63-.93-.56-1.79.31-1,.61-2.11.92-3.1,2.11-6,3.29-12.2,4.86-18.5,2.78-11.93,5.81-24.31,10-36.82,2.11-6.54,4.4-13.23,6.73-20.06.8-1.82,1.47-3.65,2.42-5.5a4.1,4.1,0,0,1,2.91-3c-.41,1.49-.67,2.8-1.08,4.28,1.26-.36,1.53-1.48,2.09-2.22.28-.56.55-1.49,1.12-1.12.43.2.29.94.3,1.69L94.41,17c1.43,1.88,1.72,3.94.61,7.07-2.48,6.17-4.63,12.23-6.74,18.34C86.47,47.56,85,52.62,83.34,57.6c-.37,1.48-.86,2.95-1.35,4.58a10.34,10.34,0,0,0-.47,1.94l.39,0C82.88,60.74,84,57.46,85,54c.14,0,.27.18.27.18-.87,2.82-1.73,5.78-2.59,8.55l.27.35a12.49,12.49,0,0,1,1.27-1.42A57,57,0,0,1,97,50.26c5-3.29,9.46-3.46,13.82-1.15a14.52,14.52,0,0,1,5.32,5C118,57,118,60.5,117.44,64.44c-.85,6.59-3.61,12.42-6.85,18.09a63.64,63.64,0,0,1-7.2,10.41A2.26,2.26,0,0,0,103,94Zm-2.48-17a47.62,47.62,0,0,0,5.78-15.8,7.66,7.66,0,0,0-.24-4,9.65,9.65,0,0,0-2.36.91,34.77,34.77,0,0,0-8,5.81c-1.6,1.74-3.31,3.45-4.89,5l-.13.16H90.5l.26-.15c-.26-.34-.53-.36-.79,0s-.38.63-.64.94v-.16A110,110,0,0,0,75.77,90.24c.73-.23.87.39,1,.86a17,17,0,0,0,1.32-1.71c.55,1.88.55,1.88,1.9,1.4a7.31,7.31,0,0,0,.9,1,3.23,3.23,0,0,0,4.54,1,31.57,31.57,0,0,0,4.79-3.11A47.42,47.42,0,0,0,100.51,77ZM75.71,88.56c.58-1.48,1.91-2.75,2.11-4.43C76.25,86,75.79,87.19,75.71,88.56Zm5.86-10.88c-1.09,2-2.43,4.06-3.63,6.15,1.72-1.58,2.41-4,4-6C81.83,77.86,81.7,77.69,81.57,77.68Zm-2.7,8.08a.15.15,0,0,0,.13.17,4.82,4.82,0,0,0-.59,1.18l-.25,0A6.62,6.62,0,0,1,78.87,85.76Zm-.21-12.59.25,0a3.1,3.1,0,0,1,.49-.93l-.39,0C78.89,72.55,78.78,72.86,78.66,73.17Zm1.6-2.46c0,.16.13.17.26.34,1.62-2.48,3.38-4.81,5.17-7.16,0-.17-.13-.18-.27-.35C83.64,65.9,81.34,67.71,80.26,70.71Zm3.87,6.85.26,0a5,5,0,0,0-.75,1.06.15.15,0,0,0-.13-.17C83.76,78.17,83.88,77.86,84.13,77.56Zm5.08-6.88a6.28,6.28,0,0,1,.12-.81,11,11,0,0,1,1.17-.74,10.31,10.31,0,0,1-1,1.57ZM104,77c-1.35.07-1.89.51-2.43,2.26-.67,2.38-2.13,4-3.45,5.83-.78,1.36-1.82,2.54-2.73,3.87.13.17.26.18.26.34a34.1,34.1,0,0,0,3.26-3.51C100.9,83,102.91,80.46,104,77Zm.09,7.31a27.58,27.58,0,0,0,4-6.68c-.14,0-.27-.18-.41-.19-1.37,2.18-2.6,4.53-4,6.67A.47.47,0,0,0,104.09,84.27Zm.6-9.72-.54,0a6.58,6.58,0,0,1,0,2.3A3.65,3.65,0,0,0,104.69,74.55Zm1.94,11.37c-.41.61-.68,1.23-1.22,2a27.82,27.82,0,0,0,6.06-9.56c-.84.76-1.39,1.21-1.53,1.69a10.65,10.65,0,0,1-2.08,3.74C107.45,84.54,107,85.15,106.63,85.92Z"/><path d="M154.06,94.78c-.47.29-.49.62-.68,1.11a4.84,4.84,0,0,0-.93.58c-1.54,1-1.69,1-2-.68-.6.27-1.2.38-1.81.66-1.06.56-2.14,1.61-3.33,2-.87.08-1.37,1.18-2.26,1.58-1.18.54-2.36,1.23-2.45,2.84a4.58,4.58,0,0,1-1,.86c-.55-.54-1.9.93-2.26-.23a2,2,0,0,0-.72.25c.12.33,0,.63.08,1.12-.42.12-.87.55-1.44.81s-1,.21-1.29.5a1.3,1.3,0,0,0-1.12.2c-1,1.15-2.13,1-3.38,1.06-1.51-.16-3.31.28-4.81.12-2.31-.4-4.46-.94-6.18-2.52-2-2.07-3.81-4.28-4.42-7.47-.63-2.43-.45-5.11-.4-7.83a8.75,8.75,0,0,1,.86-2.18c.14-.31-.12-.82-.12-1.14a39.27,39.27,0,0,1,4.39-10.86,66,66,0,0,1,15.79-19.12,52.19,52.19,0,0,1,6.35-4.22c1.1-.68,2.35-1.36,3,.14h.31c1.87-.65,3.35.33,5.24-.32,8.46-2.79,15.84-1.55,21.17,3.93a10.16,10.16,0,0,1,2.5,4.41,6.34,6.34,0,0,1,0,3.51c-.4,4.37-2.5,8.22-4.73,12a83.09,83.09,0,0,1-12.58,17.36A14.93,14.93,0,0,0,154.06,94.78ZM123.11,75c2.38-3.4,4.79-6.67,7.38-10.15.31-.34.32-.68.63-1-5.84,5.54-10.56,11.5-13,18.95.28-.3.56-.44.85-.75C120.44,79.68,121.77,77.28,123.11,75ZM127,75c-2.35,2.37-3.58,5.45-5.07,8.32.14,0,.14.17.28.18C123.79,80.6,125.29,77.7,127,75Zm18,12.85a67.7,67.7,0,0,0,8.86-12.54c2.59-4.24,4.45-8.58,4.78-13.08.16-2.18-.43-2.57-2.34-2.13a20.92,20.92,0,0,0-7.77,3.55c-1,.66-2,1.13-3.29,1.95,0-.71.22-1.23.25-1.76a21.45,21.45,0,0,0-7.48,5.89A30,30,0,0,1,135.75,72c.93-1.15,1.58-2.32,2.53-3.66-.46.32-.61.31-.77.48-5.36,5.68-9.89,11.61-11.84,18.74-1.24,4-1.64,7.8-.5,11.11.63,1.65.77,1.67,2.3,1.34A12,12,0,0,0,130,99.1C135.76,96.74,140.55,92.59,144.9,87.8Zm-19.84-3c2.54-4.12,5-8.31,7.61-12.57A36.78,36.78,0,0,0,125.06,84.84Zm1.48,1.93.28,0c-.16.81-.61,1.59-.78,2.23l-.27,0C125.93,88.36,126.37,87.58,126.54,86.77Zm3.21-6.39a48.13,48.13,0,0,1,3.37-4.83c-.62.81-.94,1.64-1.4,2.28-1.09,2.12-2.45,4-3.52,5.94l-.42,0A25.55,25.55,0,0,1,129.75,80.38Zm3.38-5.16c.14,0,.3-.15.3-.15l-.16.16Zm0,0h.14c-.15.16-.15.16-.15.32Zm2.31-2.93a5.93,5.93,0,0,1-2,2.78A5.16,5.16,0,0,1,135.44,72.29Zm0,0s.15,0,.16-.17v.18Zm.16-.17.15-.16c-.15.16-.15.16-.16.34Zm22.29,3.07-.61,0c-2.54,3.49-4.43,6.81-6.73,9.89s-5.24,5.8-8.21,9.19c.73-.1,1.17-.06,1.48-.36C149.42,88.67,154.6,82.78,157.89,75.19Zm-3,16.64a13.32,13.32,0,0,0-4.43,4C152.11,94.94,153.42,93.22,154.86,91.83Zm-1.48,4.06a9.61,9.61,0,0,1,1.06-.24C153.79,96.42,153.78,96.59,153.38,95.89Zm0-.17,0,.17Zm3.37-11.56a32.27,32.27,0,0,0,5.87-8.47c.38-.86,1.23-1.87,1-3.13C161.18,76.47,159.05,80.17,156.77,84.16Zm-.39,9.48c1.63-1.71,3.28-3.6,5-5.51-1.1,2.3-3.06,4.16-4.69,5.87C156.52,93.82,156.37,93.81,156.38,93.64Zm.45-4a39.39,39.39,0,0,0,10-13.83C163.33,80.49,160.2,85.11,156.83,89.63Zm14.4-15.5c-1.13,2.07-2.57,4.1-3.69,6.14a27.08,27.08,0,0,1-4.88,6.59,10.19,10.19,0,0,1,1.25-2.15,57.5,57.5,0,0,0,6-9.42A1.45,1.45,0,0,1,171.23,74.13Zm0,0a3.27,3.27,0,0,1,.75-3,11.53,11.53,0,0,1-.73,2.83Z"/><path d="M211.52,116.59a.61.61,0,0,0,.12.36,17.07,17.07,0,0,1-1.39,1.55c-1.57,1.69-1.92,1.82-3.6,1A7.22,7.22,0,0,0,204,119a3.09,3.09,0,0,1-2.86-1.66,8.91,8.91,0,0,1-.92-6.35c.84-3.86,1.83-7.57,2.83-11.32a23.62,23.62,0,0,1,.9-2.92c-1,.09-1.62.92-2.18,1.4-3,2.54-6.08,5.19-9.11,7.48a27.15,27.15,0,0,1-5.86,3.66,8.1,8.1,0,0,1-6.66.66,46,46,0,0,0-4.67-1.14c-2-.37-3.07-1.64-4.16-3.08-2.13-3.37-2.08-7.23-1.06-11.73,2.27-9.32,7.11-18.39,14-27.08a22.23,22.23,0,0,1,3.91-4.07c.75-.72,1.66-1.42,2.76-.8-1,3-4.07,5.2-5.25,8.46,1.65-1.56,3.3-3,4.78-4.36.75-.7,1.36-1.61,2.11-2.32.8-1.08,1.83-1.22,2.53,0-2,2.71-4,5.76-6.17,8.58.16,0,.33,0,.31.21,2.29-2.63,4.62-5.47,7-8.16,1.88,1.23,1.93,2.18.33,4.15a28.53,28.53,0,0,1-1.79,2.32A6.43,6.43,0,0,0,193.6,73a29.57,29.57,0,0,1,2.16-2.65,33.74,33.74,0,0,0,2.37-2.85.53.53,0,0,1,.48.22c-.21.36-.28.92-.5,1.28a109.56,109.56,0,0,0-9.33,14.22c0,.18-.22.52-.08.71a5.47,5.47,0,0,0,.81-1.38l1.16-1.53c1.44-2.44,3.06-4.88,4.87-7.53a17.1,17.1,0,0,1,3.08-3.15c-5.85,8.29-11.19,16.17-14.55,24.67,1.13-.08,1.7-.9,2.39-1.36q10.13-9.51,20.36-19.62c5.8-5.7,11.6-11.73,17.35-17.74a25.12,25.12,0,0,1,4.29-3,1.78,1.78,0,0,1,1.45.06L229.65,55a15.91,15.91,0,0,0-1.92,2.9c1.93-.7,2.52-2.08,3.93-2.81,1.29-1.15,2.32-.71,2.27.7-.25.39-.28.59-.53,1,2.15-.71,2.52-.7,3.35.95a4.26,4.26,0,0,1,1.13,2.05,6.37,6.37,0,0,1-1.77,3.89c-2.94,4.36-5.8,8.46-8.65,12.69-1.12,1.45-2.24,2.89-3.15,4.14-.41.35-.61.52-.64.71-3.81,8.62-8.66,16.73-11.09,25a35,35,0,0,0-1.77,5.22,11.52,11.52,0,0,0-.35,2.37c.17,1,.19,2.07.36,3.11Zm-27.1-23.26-.16,0c0,.18-.19.34-.21.51l.31,0Zm33.26-26a.2.2,0,0,0-.2.18c-11.12,11.18-21.58,22-32.72,31.4a.59.59,0,0,0-.19.33C188.87,97.88,215.11,72.88,217.68,67.31ZM205,93.47c-4.53,4-8.43,7.54-12.42,11C197,101.91,203.69,95.85,205,93.47Zm-1.23-.81A15.19,15.19,0,0,0,205.52,91c0-.18-.12-.37-.14-.2A2.64,2.64,0,0,0,203.78,92.66Zm16.54-3.57h.17a6,6,0,0,1-.57,1.42h-.17A6.32,6.32,0,0,0,220.32,89.09ZM236,64.41l.73,0-10.11,15c-.14-.2-.14-.2-.32-.21C229.22,74.33,232.58,69.32,236,64.41Z"/><path d="M294.6,55.23c-3.55.06-6.81-.07-10.11,0-3-.13-6.08-.05-8.91,0-2.63.1-2.87.3-4.54,2.51-2.22,3-4.41,6-7,8.89.36-.79.95-1.77,1.36-2.77l-.39,0c-3,4.3-5.81,8.54-8.74,12.71.71.24,1.05.46,1.23.47-2.3,4-4.58,7.86-6.79,11.53a1.56,1.56,0,0,1-.36.92c-2.91,1.67-3.19,4.09-4.51,6.23-1.8,3.74-3.41,7.45-5.17,11.1-.92,2.08-1.66,4.15-2.4,6.22a7,7,0,0,0-.4,6c0,.7-.22,1.2-1.17,1.62.09-.51,0-.87.22-1.2l-.52,0a2.44,2.44,0,0,1-3.12.88,2.35,2.35,0,0,0-2.1.12c-1.53.87-2.37.78-3.24-.17a8.28,8.28,0,0,1-1.61-7.65A80.4,80.4,0,0,1,232,95.72q5.73-12.9,12.33-26.51c1.8-3.67,3.95-7.16,5.93-10.7a3.82,3.82,0,0,0,.91-1.79c-.15-.21-.3-.42-.49-.43-5.57.37-9.5-1.83-14.4-2.64-2-.29-2.25-.91-1.48-3.31-.16-.2-.53-.22-.68-.43-1.92-.68-1.74-2.91.22-4.69,1.57-1.59,3.27-2.78,5.15-2.72l10.74-.3,8.51.26c2.15.06,2.15.06,4-2.22,5-6.13,9.95-12.39,15-18.79a49,49,0,0,1,4.5-4.5,42.37,42.37,0,0,1,3.33-2.73c2.74-1.84,3.75-1.61,3.34,1.16-.31.46-.15.69,0,1.84.84-.91,1.42-1.6,1.95-2.06.79-.69,1.7-.92,2.24-.45.16.23-.27,1.15-.16,1.61-.37.69-.74,1.38-1.16,2.29,1.06-.91,2.07-1.59,3.36-2.51a31.4,31.4,0,0,0,1.93,4.62c-1.66,2.5-3.51,5-5.62,7.66l4-3.33C291.4,31.52,286.6,37,282.36,43a12.24,12.24,0,0,0,2.56.52c5.09.37,9.4,1.59,12.69,4.53,1.09.69,1.4,2,1.92,3.33C299.79,52.85,296.66,55.31,294.6,55.23ZM254.94,79.65c-.3.57-.38.95-.68,1.52.19,0,.19,0,.23-.18.26-.37.37-.95.63-1.32Zm6.29-9.49c.19,0,.34.22.72.24a39.19,39.19,0,0,0-2.82,4.42.57.57,0,0,0-.52-.23C259.45,73.25,260.34,71.71,261.23,70.16ZM282,41.64a8.55,8.55,0,0,0,.8-1.71,15.22,15.22,0,0,0-1.21,1.7Zm2.62-3.41c2-2.59,4-5,5.91-7.63.31-.44.47-1.11.83-1.77-2.7,3.53-5.63,7.23-8.26,10.67A9.62,9.62,0,0,0,284.65,38.23Z"/></svg>