<?xml version="1.0" encoding="UTF-8"?>
<svg id="Contents" xmlns="http://www.w3.org/2000/svg" viewBox="0 0 1180 475">
  <defs>
    <style>
      .cls-1 {
        fill: #060000;
      }
    </style>
  </defs>
  <g>
    <path class="cls-1" d="M252.34,125.68s-18.82,73.05-22.29,86.45c-12.28,47.39-37.99,73.88-73.81,74.11-23.85.15-32.89-18.31-25.36-52.73,0,0,20.74-86.12,25.17-104.49.41-1.71-.89-3.33-2.64-3.33h-56.7s-13.81,57.01-22.8,91.4c-16.64,63.68,2.09,113.47,57.63,117.3,29.92,2.06,55.94-12.59,75.7-31.72l.98.1c-11.41,38.59-30.68,59.99-68.59,67.24-14.49,2.77-35.23.35-50.3-7.51-1.34-.7-2.97-.02-3.34,1.45l-13.71,54.49c14.63,4.46,41.53,7.33,70.41,2.77,50.72-8.01,111.73-46.23,132.37-134.63l38.69-157.45c.43-1.74-.89-3.42-2.69-3.43h-58.69Z"/>
    <path class="cls-1" d="M1106.01,269.33h-48.67l37.54-140.25c.46-1.72-.83-3.4-2.61-3.4h-50.67l-39.19,143.65h-42.79l37.91-140.22c.48-1.72-.81-3.43-2.6-3.43h-49.64s-36.81,133.42-42.53,153.69c-20.69,73.33-66.78,42.5-92.05,36.23,38.67-23.48,67.61-52.15,81.8-92.81,11.4-32.68,7.3-68.45-16.18-89.1-22.76-20.02-50.3-23.96-76.4-20.35-29.9,4.14-58.07,23.05-72.33,46.26l28.92,36.17c1.05,1.31,3.12,1.11,3.85-.41,6.69-13.94,19.4-26.89,32.17-31.24,14.84-5.05,31.1-4.65,42.05,6.01,10.66,10.37,11.51,33.36-.44,55.58-20.13,37.41-76.64,75.51-123.26,92.62l21.19,50.42c.58,1.37,2.3,1.87,3.48.96,12.15-9.37,32.3-13.71,47.39-12.45,32.57,2.73,39.93,12.74,69.97,16.35,44.28,5.32,77.75-19.4,91.68-59.57l45.39.27-23.89,87.24c-.48,1.72.81,3.43,2.6,3.43h52.17l24.24-90.38,52.48.28,11.03-42.18c.45-1.71-.84-3.39-2.61-3.39Z"/>
    <path class="cls-1" d="M634.24,218.38c-25.66-12.57-43.41-24.07-41.3-40.07,1.42-10.77,14.58-18.7,34.51-16.88,12.41,1.14,23.08,6.96,33.1,16.07,5.75,5.23,12.03,12.71,15.8,19.25.75,1.3,2.53,1.51,3.59.45l36.55-36.33c-25.33-35.19-53.97-47.87-92.75-48.74-31.76-.71-67.13,9.99-82.44,43.19-8.9,19.31-9.48,45.78,11,69.87,10.43,12.27,27.7,25.09,49.3,35.59,28.53,13.86,40.95,24.26,38.91,39.01-3,21.72-24.95,28.07-43.88,25.57-28.73-3.78-47.84-19.98-44.7-49.3l-54.9-14.92c-1.34-.36-2.65.54-2.88,1.91-1.11,6.58-3.98,13.72-7.73,19.99-16.06,26.84-48.77,45.96-84.64,38.37-44.93-9.5-53.45-54.52-38.38-103.29,15.11-48.88,69.9-70.09,89.42-56.46,14.55,10.15,9.65,32.68-4.76,48.32-14.66,15.9-42.25,25.05-70.91,25.6-2.17.04-3.41,2.5-2.22,4.31l23.09,34.4c61.02.23,112.93-42.04,119.51-80.39,6.07-35.35-10.28-65.34-44.67-76.76-24.2-8.03-57.48-4.69-84.1,5.79-37.32,14.7-68.48,47.27-81.13,86.06-16.39,50.27-11.1,93.37,11.43,122.96,17.52,23.02,43.75,40.29,84.1,41.95,41.36,1.7,81.9-12.76,107.43-42.95,10.66,18.6,44.03,40.98,85.22,42.9,64.31,2.98,102.41-32.26,106.24-73.65,3.39-36.65-25.27-60.99-67.81-81.83Z"/>
  </g>
  <path class="cls-1" d="M172.88,114.21c16.02,0,22.23-12.2,26.31-31.36,3.96-18.65,3.05-31.36-12.98-31.36-16.02,0-22.34,12.71-26.31,31.36-4.07,19.15-3.04,31.36,12.98,31.36Z"/>
  <path class="cls-1" d="M234.23,114.21c16.02,0,22.23-12.2,26.31-31.36,3.96-18.65,3.05-31.36-12.98-31.36-16.02,0-22.34,12.71-26.31,31.36-4.07,19.15-3.04,31.36,12.98,31.36Z"/>
</svg>